<?xml version="1.0" standalone="no"?>
<!DOCTYPE svg PUBLIC "-//W3C//DTD SVG 20010904//EN"
 "http://www.w3.org/TR/2001/REC-SVG-20010904/DTD/svg10.dtd">
<svg version="1.0" xmlns="http://www.w3.org/2000/svg"
 width="260.000000pt" height="260.000000pt" viewBox="0 0 260.000000 260.000000"
 preserveAspectRatio="xMidYMid meet">
<metadata>
Created by potrace 1.11, written by Peter Selinger 2001-2013
</metadata>
<g transform="translate(0.000000,260.000000) scale(0.100000,-0.100000)"
fill="#000000" stroke="none">
<path d="M243 1848 c-1 -23 -14 -248 -18 -301 -2 -29 -7 -89 -10 -135 l-6 -83
62 3 63 3 2 35 c1 19 3 65 5 102 2 36 6 65 10 62 4 -2 22 -49 40 -104 l33
-100 63 0 c60 0 63 1 69 28 4 15 9 32 13 37 3 6 6 15 8 20 1 6 11 37 22 70 14
43 20 53 22 35 1 -14 3 -38 4 -55 2 -16 3 -54 4 -83 l1 -53 62 3 62 3 -3 60
c-1 33 -4 83 -6 110 -3 50 -17 279 -19 325 -1 24 -4 25 -65 25 l-63 0 -54
-155 c-30 -85 -55 -159 -57 -163 -1 -5 -20 42 -41 105 -21 62 -47 137 -58 166
l-19 52 -63 0 c-43 0 -63 -4 -63 -12z"/>
<path d="M798 1848 c-2 -7 -4 -92 -3 -188 1 -157 4 -179 23 -216 75 -145 273
-150 354 -9 21 38 23 52 24 233 l2 192 -62 0 -61 0 0 -180 c-1 -175 -1 -180
-25 -205 -31 -33 -73 -33 -105 0 -28 27 -27 16 -27 228 l-1 157 -57 0 c-37 0
-59 -4 -62 -12z"/>
<path d="M1269 1842 c6 -11 34 -57 62 -103 29 -46 59 -96 67 -110 15 -26 14
-30 -58 -150 -40 -68 -78 -130 -83 -137 -8 -10 4 -12 64 -10 l74 3 44 72 c24
40 47 70 51 68 4 -3 27 -36 50 -75 l42 -70 76 0 c70 0 74 1 60 18 -14 17 -124
196 -147 239 -10 20 -2 37 64 145 l75 123 -67 3 c-76 4 -69 8 -126 -85 l-32
-53 -41 68 -40 67 -73 3 c-68 3 -72 2 -62 -16z"/>
<path d="M1769 1858 c0 -2 -2 -218 -2 -480 l-2 -476 -24 -26 c-31 -32 -71 -34
-106 -3 l-26 22 1 183 0 183 -62 -3 -63 -3 1 -185 c1 -167 3 -189 22 -226 79
-155 290 -149 362 9 15 34 17 87 17 522 l1 485 -59 0 c-32 0 -59 -1 -60 -2z"/>
<path d="M929 1203 c0 -32 -2 -71 -3 -88 -2 -16 -6 -84 -10 -150 -4 -66 -9
-146 -12 -178 l-5 -58 63 3 c70 3 63 -11 69 131 2 37 7 67 10 67 4 0 22 -45
40 -100 l33 -100 63 0 62 0 32 100 c18 54 35 97 38 95 4 -5 7 -40 10 -147 l1
-48 60 0 c41 0 60 4 61 13 2 16 1 36 -5 142 -4 74 -13 224 -20 345 -1 24 -4
25 -65 25 l-64 0 -56 -164 c-30 -90 -57 -158 -60 -150 -2 8 -28 82 -56 164
l-52 150 -67 3 -66 3 -1 -58z"/>
<path d="M1950 1251 c0 -6 5 -13 11 -16 5 -4 14 -17 20 -28 5 -12 34 -60 64
-107 30 -47 54 -89 55 -95 0 -5 -16 -37 -36 -70 -20 -33 -56 -93 -80 -132
l-43 -73 69 0 69 0 49 76 50 77 34 -54 c19 -30 40 -65 47 -77 10 -19 20 -22
81 -22 39 0 70 2 70 5 0 2 -32 55 -70 117 -39 62 -75 122 -81 134 -9 18 0 39
65 145 l76 124 -61 3 c-34 2 -68 1 -74 -2 -7 -2 -28 -32 -46 -65 -19 -34 -37
-61 -41 -61 -4 0 -26 29 -49 65 l-41 65 -69 0 c-38 0 -69 -4 -69 -9z"/>
</g>
</svg>
