<?xml version="1.0" standalone="no"?>
<!DOCTYPE svg PUBLIC "-//W3C//DTD SVG 1.1//EN" "http://www.w3.org/Graphics/SVG/1.1/DTD/svg11.dtd" >
<svg xmlns="http://www.w3.org/2000/svg">
<metadata>Generated by IcoMoon</metadata>
<defs>
<font id="muximuxfonts" horiz-adv-x="1024">
<font-face units-per-em="1024" ascent="960" descent="-64" />
<missing-glyph horiz-adv-x="1024" />
<glyph unicode="&#x20;" horiz-adv-x="512" d="" />
<glyph unicode="&#xe900;" glyph-name="pihole" horiz-adv-x="688" d="M25.311 960h43.953c77.43-9.032 157.276-38.991 205.456-103.319 42.877-52.592 58.972-120.228 67.4-186.053 13.522 59.707 39.857 121.41 93.972 155.044 34.658 24.392 77.719 30.72 119.178 30.274-0.63-24.392 0.158-49.415-8.061-72.783-17.040-56.346-63.987-100.378-118.364-120.806-104.606-39.857-233.183-15.885-311.454 65.825-60.915 60.862-87.381 147.666-92.081 231.818zM315.943 627.699c45.896 12.682 95.836-3.938 129.575-36.155 25.994-31.035 36.208-72.205 37.1-111.984-0.866-69.921-70.446-130.101-139.868-119.729-63.042 8.166-111.117 57.16-173.266 68.398-30.667 8.245-62.149 0.683-91.504-8.822 37.599 44.688 82.813 82.183 121.357 126.005 31.902 35.577 68.24 71.549 116.605 82.288zM477.867 556.098c52.828-52.355 103.87-106.47 155.569-159.954 27.49-27.49 48.679-62.674 54.482-101.507v-31.849c-4.385-24.156-14.467-47.209-28.409-67.348-19.771-23.368-46.264-42.798-76.616-49.362-58.736-16.594-127.554 13.365-154.571 68.372-22.449 40.33-15.78 91.477 4.857 131.177 15.859 34.107 44.478 62.123 52.434 99.774 11.553 36.549 1.26 74.857-7.746 110.697zM72.835 406.672c52.618 29.25 123.615 18.406 165.048-25.337 33.766-33.556 43.559-85.36 29.591-130.153-10.791-48.233-53.353-81.29-64.039-129.628-11.842-34.16-4.857-70.682 3.781-104.632-48.548 46.946-95.442 95.547-143.728 142.73-31.639 29.328-57.029 67.584-63.488 110.881v31.823c8.113 43.271 33.057 83.705 72.835 104.317zM205.903 63.107c-7.142 69.238 47.708 139.028 117.471 145.592 42.273 1.444 81.657-16.358 117.497-36.785 31.088-15.623 61.571-36.785 97.411-38.571 25.469-1.575 49.861 5.934 74.043 12.656-56.189-55.979-108.964-115.397-167.043-169.485-22.633-22.292-53.353-33.634-83.784-40.514h-37.363c-61.256 11.185-114.609 63.462-118.233 127.107z" />
<glyph unicode="&#xe901;" glyph-name="lidarr" d="M486.9 957.020c156.56 9.080 314.98-60.46 415-181.1 66.48-78.76 108.32-178 117.24-280.74 18.24-171.080-59.78-348.020-197.12-451.26-105.92-82.72-245.98-119.2-378.88-100.84-134.92 17.76-261.22 92.74-341.2 202.86-83.12 110.94-116.58 257.18-91.36 393.32 17.040 93.74 60.88 182.56 125.56 252.58 88.96 98.68 218.18 158.78 350.76 165.18zM487.4 862.56c-30.26-1.22-60.32-6.16-89.4-14.56-128.88-35.64-236.74-137.84-279.28-264.6-47.12-132.54-19.46-288.26 69.82-396.86 75.52-94.76 194.36-152.52 315.38-154.84 0.020-18.060 0.18-36.14 0.46-54.22 10.18 18.96 21.66 37.2 32.22 55.96 42.36 1.68 84.32 10.82 123.86 26.040 115.32 43.18 208.5 140.74 246.42 257.88 44.94 131.5 16.74 284.8-71.42 392.1-75.52 94.76-194.36 152.54-315.38 154.84-0.020 18.080-0.18 36.14-0.46 54.22-10.2-18.96-21.66-37.2-32.22-55.96zM500.060 860.18c2.44-0.34 4.86-0.66 7.3-1 1.12-87.94 1-175.9 0.060-263.82-31.6-3.6-63.72-13.34-88.060-34.64-25.74-19.62-41.2-49.46-50.6-79.82-12.32-53.44 9.34-110.78 49.68-146.76-0.34-1.38-1.060-4.12-1.42-5.5-57-1.46-114.020-0.16-171.020-0.74-19.040 0.16-38.1-1.12-57.1 0.26 103.98 177.16 206.94 354.98 311.16 532.020zM516.76 853.12c2.42 5.84 10.1 2.1 15.14 2.68 34.46-2.56 69.16-7.26 101.78-19.16 30.54-7.34 58.34-22.5 85.86-37.14 59.24-35.48 109.76-85.68 144.64-145.36 65.38-110.44 73.98-252.74 21.4-369.92-17.46-38.72-39.54-75.92-69.24-106.56-44.96-53.88-106.38-92.46-172.16-115.78-27.020-7.46-54.080-15.76-82.080-18.58-6.76-0.84-13.48 0.5-20.080 1.84 2.78 9.92 7.58 19.020 12.9 27.78 15.34 25.54 29.98 51.48 44.98 77.22 2.16 4.66 6.020 8.3 10.82 10.060 83.52 26.48 153.060 93.22 184.34 174.9 21.44 52.9 26.1 111.7 16.82 167.82-3.080 8.040 3.26 14.2 6.4 20.72 10.64 17.040 20.48 34.54 30.36 52.040-20.14 0.24-40.26 0.4-60.36 0.48-45.78 105.26-157.32 175.88-271.58 176.7-0.54 33.4-2.18 66.9 0.060 100.26zM141.4 618.36c59.5 133.22 196.18 228.58 342.22 235.84 0.44-1.18 1.34-3.54 1.78-4.74-20.84-31.96-38.86-65.62-58.38-98.38-4.34-6.32-9.040-13.32-16.34-16.38-64.56-21.52-120.92-66.7-156.78-124.48-35.18-54.84-49.76-121.58-45.44-186.22 0.3-13.080 4.12-25.78 3.96-38.88-11-22.4-25.46-42.9-37.1-64.96 20-1.38 40.040-0.080 60.060-0.4 19.18-39.18 45.080-75.6 78.62-103.76 53.72-45.34 122.82-70.9 192.98-73.16-1.34-32.8 1.54-65.54 0.96-98.34-1.54-1.56-3.080-3.14-4.6-4.72-53.040 2.92-106.64 12.24-155.12 34.66-68.040 29.7-127.68 78.62-170.34 139.36-18.040 24.72-30.84 52.66-43.86 80.2-41.3 103.020-40.080 223.62 7.38 324.36zM496.88 585c53.32 6.82 109.56-21.6 135.020-69.040 26.22-44.26 23.92-103.9-6.12-145.8-35.74-55.64-115.22-76.78-173.86-46.26-42.18 19.72-72.74 62.52-76.92 108.98-6.82 53.38 21.68 109.46 69 135.12 16.16 9.32 34.38 14.88 52.88 17zM606.96 567.34c74.56 1 149.14 1.34 223.68-0.2-1.9-11.56-8.1-21.6-14.26-31.34-97.9-166.42-194.32-333.7-292.46-499.96-2.42 0.32-4.86 0.66-7.26 0.98-1.14 87.94-1.020 175.9-0.080 263.84 38.020 3.82 75.040 19.32 102.24 46.54 38.44 41.62 51.38 106.84 26.98 158.72-9.060 21.42-23.98 39.6-40.080 56.1 0.32 1.34 0.94 3.98 1.24 5.32z" />
<glyph unicode="&#xe902;" glyph-name="radarr" d="M161.020 798.312l7.841-744.859c-62.725-7.841-109.769 23.522-109.769 86.247l-7.841 619.411c0 196.015 180.334 243.059 290.103 164.653l556.685-321.466c78.407-54.884 94.088-156.812 54.884-227.378-7.84 54.884-31.362 86.247-78.407 117.609l-627.251 352.829c-47.043 31.362-86.247 23.522-86.247-47.044zM113.975 14.248c47.043-15.681 94.088-7.84 133.291 15.681l642.932 376.351c39.203-54.884 31.363-109.769-15.681-141.131l-541.004-313.625c-78.407-39.203-180.334 0-219.538 62.724zM302.151 233.787l384.191 219.538-376.35 211.698-7.841-431.235z" />
<glyph unicode="&#xe903;" glyph-name="emby" horiz-adv-x="896" d="M411.804 895.629c70.137-69.154 139.195-139.435 209.236-208.685 11.126 11.486 22.396 22.852 33.498 34.385 54.935-51.050 105.72-106.392 160.248-157.898 28.127-25.321 53.88-53.112 81.215-79.248-67.715-71.312-139.075-139.075-207.726-209.5 10.91-11.246 21.941-22.371 32.802-33.666-36.016-36.975-73.111-72.918-109.27-109.749-41.483-45.080-85.483-87.737-128.932-130.898-69.321 68.698-138.26 137.78-207.030 207.005-11.774-11.39-23.451-22.875-35.248-34.265-57.404 56.326-113.538 113.946-170.918 170.271-24.098 21.701-47.165 44.527-69.682 67.883 68.986 69.489 138.14 138.811 207.773 207.63-11.39 12.637-23.187 24.866-34.961 37.118 79.273 80.256 159.672 159.385 238.993 239.616zM346.271 615.273c-0.168-112.027-0.168-224.030 0-336.034 96.945 56.301 194.776 111.068 291.338 168.041-42.083 25.968-85.771 49.252-128.476 74.166-54.647 30.645-108.383 62.871-162.861 93.827z" />
<glyph unicode="&#xe904;" glyph-name="ft_apart" d="M256 704q36.011 0 61.013 25.003t25.003 61.013q0 34.005-25.003 59.008t-61.013 25.003-61.013-25.003-25.003-59.008q0-36.011 25.003-61.013t61.013-25.003zM425.984 557.995q0 25.984-13.995 47.019t-38.016 31.019q-25.984 11.989-56.021 18.987t-61.995 6.997-61.995-6.997-56.021-18.987q-24.021-9.984-38.016-31.019t-13.995-47.019v-24.021h340.011v24.021zM768 704q36.011 0 61.013 25.003t25.003 61.013q0 34.005-25.003 59.008t-61.013 25.003-61.013-25.003-25.003-59.008q0-36.011 25.003-61.013t61.013-25.003zM937.984 557.995q0 25.984-13.995 47.019t-38.016 31.019q-25.984 11.989-56.021 18.987t-61.995 6.997-61.995-6.997-56.021-18.987q-24.021-9.984-38.016-31.019t-13.995-47.019v-24.021h340.011v24.021zM809.984 233.984v86.016h-596.011v-86.016l-128 128 128 128v-86.016l596.011 2.005v84.011l128-128zM425.984 150.016v41.984h-105.984q-8.021 0-15.019-6.016t-6.997-16v-128q0-8.021 6.997-13.995t15.019-6.016h86.016q8.021 0 13.995 6.016t6.016 13.995v64q0 9.984-6.016 16t-13.995 6.016h-64v22.016h84.011zM384 86.016v-22.016h-41.984v22.016h41.984zM745.984 150.016h-41.984v-128h-41.984v128h-43.989v41.984h128v-41.984zM534.016 150.016v-22.016h41.984v-41.984h-41.984v-64h-43.989v169.984h107.989v-41.984h-64z" />
<glyph unicode="&#xe905;" glyph-name="d_rotation" d="M512 938.656c268 0 488-206.016 510.016-468h-64c-14.016 160-114.016 294.016-254.016 360l-58.016-56-162.016 162.016zM706.016 434.656c0 69.856-27.328 114.016-94.016 114.016h-40v-246.016h38.016c51.296 0 80.544 27.904 92 68 4 14.016 4 30.016 4 48v16zM612 596.672c76.352 0 121.856-38.656 144-94.016 8-20 10.016-44 10.016-68v-16c0-52.8-15.136-91.136-42.016-118.016-26.816-26.816-61.12-44-114.016-44h-98.016v340h100zM414.016 430.656c30.592-12.256 56-36.48 56-78.016 0-16-4-28-10.016-40s-12-24-22.016-32c-18.752-15.008-47.104-24-80-24-62.208 0-108 31.488-108 94.016h54.016c0-30.912 23.2-50.016 54.016-50.016 35.744 0 56 17.088 56 54.016 0 37.696-24.8 54.016-62.016 54.016h-32v44h32c34.624 0 58.016 16.064 58.016 50.016 0 33.056-17.696 50.016-52 50.016-28.896 0-50.016-17.152-50.016-46.016h-56c0 29.792 15.104 49.088 30.016 64 19.84 15.872 41.792 26.016 76 26.016 51.296 0 80.768-19.552 98.016-54.016 6.016-12 8-24 8-40 0-36.384-24.672-59.328-50.016-72zM320 22.656l58.016 56 162.016-162.016-28-2.016c-268 0-488 208-510.016 470.016h64c16-160 114.016-296 254.016-362.016z" />
<glyph unicode="&#xe906;" glyph-name="px" d="M910.299 75.995l-3.438-3.438c-42.862-42.862-92.562-76.581-148.005-99.986-57.71-23.991-118.272-36.571-181.138-36.571s-124.014 12.581-181.138 36.571c-55.442 23.442-105.728 57.161-148.005 99.986-42.862 42.277-76.581 92.014-99.986 147.419-14.299 34.853-25.71 70.839-30.866 107.995v0c-2.304 16.018 20.005 19.419 27.429 20.553 17.701 2.853 29.696 1.719 32-11.447 0.585-0.585 0.585-1.134 0.585-2.304 2.304-11.447 8.009-45.714 26.295-90.843 18.871-46.848 48.018-90.295 86.857-129.134 37.157-37.157 80.567-66.304 129.134-86.857 49.701-21.138 102.839-32 157.696-32 54.272 0 107.447 10.862 157.696 32 48.018 20.553 91.429 49.701 128.585 86.857l3.438 3.438c3.986 3.986 8.558 5.157 14.299 3.438 5.157-1.134 11.447-5.705 18.871-12.581v0c18.286-18.871 14.299-28.014 9.728-33.134zM640.585 427.447l-37.705-37.705 35.986-35.986c3.986-3.986 11.447-12.581-3.986-28.014-6.29-6.29-12.581-9.728-18.286-9.728-3.986 0-7.424 1.719-10.862 5.705l-35.438 34.853-37.705-37.705c-1.134-1.134-3.986-2.853-8.558-2.853-5.157 0-11.447 2.853-17.701 9.143l-1.134 1.134c-3.986 3.438-10.277 9.728-10.277 16.567 0 3.438 1.719 6.29 4.571 9.728l37.705 37.157-37.705 37.705c-6.29 6.29-3.438 14.299 8.009 25.71 6.839 6.839 12.581 10.277 17.701 10.277 2.853 0 5.157-1.134 7.424-2.853l37.157-37.705 37.157 37.157c6.29 6.29 16.567 3.438 27.429-7.424 6.839-6.839 14.299-16.567 6.29-25.161zM909.714 394.862c0-45.129-9.143-89.161-26.295-130.304-17.152-40.009-41.143-75.447-72.009-106.277s-66.853-54.857-106.862-72.009c-41.143-17.701-85.138-26.295-130.304-26.295s-89.161 8.558-130.304 26.295c-40.009 17.152-75.995 41.143-106.862 72.009s-54.857 66.304-71.424 106.277c-3.438 7.424-8.558 21.723-8.558 22.857h-0.585c-5.157 16.018 17.701 22.857 24.576 25.161 16.567 5.157 29.147 7.424 34.304-6.839 13.714-36.571 34.853-72.009 55.442-95.415h0.585v194.853c1.134 48.018 21.138 96.585 58.295 132.571 38.29 37.705 89.71 58.843 144.567 58.843 112.018 0 202.862-90.295 202.862-201.143 0-112.018-91.429-202.862-202.862-202.862-22.272 0-38.839 1.719-64 9.143-2.853 1.134-16.018 6.839-7.424 34.853 2.304 7.424 9.143 29.147 25.161 24.576 1.134 0 29.147-6.839 43.995-6.839 79.433 0 141.714 61.696 141.714 140.581 0 37.157-14.848 72.009-41.143 97.719-26.295 26.295-61.696 40.558-99.986 40.558-39.424 0-75.447-16.018-101.705-45.714-22.857-25.71-36.571-60.014-36.571-91.429v-235.995c41.143-25.161 88.576-38.29 138.277-38.29 73.143 0 143.982 29.147 194.853 80.018 51.419 51.419 80.018 120.576 80.018 193.134 0 73.143-28.562 141.714-80.567 193.719-51.419 51.419-119.991 80.018-193.719 80.018s-142.848-28.562-194.304-80.018c-0.585-0.585-33.134-34.304-43.995-49.701l-1.134-1.134c-6.839-9.728-13.129-18.871-41.728-12.581-14.299 3.438-29.696 11.995-29.696 24.576v388.571c0 10.277 8.009 21.723 21.723 21.723h501.138c17.152 0 17.152-23.991 17.152-31.415 0-8.009 0-31.415-17.152-31.415h-463.433v-276.005h0.585c32 33.719 87.442 69.157 119.991 82.871 40.558 17.152 86.272 26.295 131.986 26.295 45.129 0 89.161-8.558 130.304-26.295 40.009-17.152 75.995-41.143 106.862-72.009s54.857-66.304 72.009-106.277c17.152-41.728 26.295-85.138 26.295-130.853zM892.014 726.857c10.862-9.728 3.438-20.005-7.424-32.585-6.839-6.839-14.299-14.848-22.272-14.848-3.438 0-6.29 1.134-9.143 3.986-41.143 35.438-78.299 59.429-118.272 75.995-49.701 21.723-102.839 32-157.696 32-48.567 0-101.705-9.728-149.723-28.014-14.848-5.705-22.857 13.714-25.71 21.138-3.438 9.143-5.157 16.567-4.571 21.723 1.134 5.705 3.986 9.728 9.143 11.447 46.848 20.553 110.848 32.585 170.862 32.585 62.281 0 123.429-12.581 180.553-36.571 52.553-22.272 95.415-49.701 134.29-86.857z" />
<glyph unicode="&#xe907;" glyph-name="abbrobotstudio" d="M1024 428.384c0-226.208-183.392-409.6-409.6-409.6s-409.6 183.392-409.6 409.6v0h45.664c0-200.992 162.944-363.936 363.936-363.936s363.936 162.944 363.936 363.936c0 200.992-162.944 363.936-363.936 363.936v0 45.664c226.208 0 409.6-183.392 409.6-409.6v0zM614.4 564.896c-75.392 0-136.544-61.12-136.544-136.544s61.12-136.544 136.544-136.544c75.392 0 136.544 61.12 136.544 136.544v0c0 75.392-61.12 136.544-136.544 136.544v0zM529.056 564.896l-25.6 284.576-104.96-81.92-62.304 61.44c-34.72 30.144-80.384 48.544-130.336 48.544-40.736 0-78.624-12.224-110.176-33.216l0.736 0.448-86.176-55.456c-6.112-4.192-10.080-11.168-10.080-19.072 0-4.64 1.376-8.992 3.744-12.608l-0.064 0.096c4.192-6.112 11.168-10.080 19.072-10.080 4.64 0 8.992 1.376 12.608 3.744l-0.096-0.064 85.344 55.904c23.968 15.904 53.44 25.376 85.088 25.376 37.248 0 71.456-13.12 98.208-35.008l-0.288 0.224 58.464-58.88-97.696-77.664z" />
<glyph unicode="&#xe908;" glyph-name="about-dot-me" d="M833.536 569.6c-58.592 0-91.008-43.264-97.888-90.272h196.608c-5.344 44.8-36.992 90.24-98.72 90.24zM737.12 415.232c10.016-49.312 50.912-84.064 108.032-84.064 30.944 0 75.52 11.52 101.728 39.008l50.144-57.6c-45.408-47.36-113.184-60.832-159.584-60.832-112.64 0-200.416 81.312-200.416 196.512 0 108.16 80.8 197.12 194.976 197.12 110.304 0 192-84.48 192-196.448v-32.672h-286.848zM460.32 251.808v242.784c0 41.632-18.56 65.536-57.088 65.536-34.72 0-57.824-24.96-73.248-42.976v-266.24h-100.256v243.2c0 41.632-17.696 65.376-56.224 65.376-34.688 0-58.656-24.992-73.248-42.912v-266.24h-100.224v389.344h100.256v-49.056c17.056 19.808 55.552 53.76 115.616 53.76 53.216 0 89.44-22.4 105.696-67.84 22.368 32.512 64 67.84 124.16 67.84 72.544 0 114.784-43.104 114.784-126.368v-266.24h-100.384z" />
<glyph unicode="&#xe909;" glyph-name="abstract" d="M512 960c409.632 0 512-102.368 512-512s-102.368-512-512-512-512 102.368-512 512 102.368 512 512 512zM428 167.936c107.68-0.128 196.448 88.32 196.64 196.064 0 107.552-88.48 196.064-196.064 196.064s-196.064-88.544-196.064-196.064c0-107.36 88.096-195.744 195.456-196.064zM784 176v544h-544v-95.872h447.904v-448.128zM428 463.904c55.2-0.032 99.936-44.768 99.936-99.968s-44.768-99.968-99.968-99.968c0 0-0.032 0-0.032 0v0c-55.2 0.032-99.936 44.768-99.936 99.968s44.768 99.968 99.968 99.968c0 0 0.032 0 0.032 0v0z" />
<glyph unicode="&#xe90a;" glyph-name="ac_unit" d="M937.984 489.984v-84.011h-178.005l137.984-137.984-59.989-61.995-198.016 200.021h-86.016v-86.016l200.021-198.016-61.995-59.989-137.984 137.984v-178.005h-84.011v178.005l-137.984-137.984-61.995 59.989 200.021 198.016v86.016h-86.016l-198.016-200.021-59.989 61.995 137.984 137.984h-178.005v84.011h178.005l-137.984 137.984 59.989 61.995 198.016-200.021h86.016v86.016l-200.021 198.016 61.995 59.989 137.984-137.984v178.005h84.011v-178.005l137.984 137.984 61.995-59.989-200.021-198.016v-86.016h86.016l198.016 200.021 59.989-61.995-137.984-137.984h178.005z" />
<glyph unicode="&#xe90b;" glyph-name="academia" d="M940.064 56.32l-352.544 884.096h-251.776l44.768-111.904-302.176-772.192c-11.168-39.168-44.768-44.8-78.336-50.4v-50.336h290.976v50.336c-78.336 5.6-123.136 16.8-89.568 100.736 5.6 5.6 28 67.168 55.936 145.504h358.112l50.336-128.672c5.6-22.4 11.168-39.168 11.168-55.936 0-44.768-39.168-61.568-111.904-61.568v-50.336h458.912v50.336c-39.168 5.536-72.736 16.768-83.936 50.336zM290.976 347.264c55.936 139.904 117.504 302.176 139.904 363.744l145.504-363.744z" />
<glyph unicode="&#xe90c;" glyph-name="access_alarm" d="M512 105.984q123.989 0 210.987 88.021t86.997 212.011-86.997 210.987-210.987 86.997-210.987-86.997-86.997-210.987 86.997-212.011 210.987-88.021zM512 790.016q160 0 272-112.981t112-271.019-112-271.019-272-112.981-272 112.981-112 271.019 112 271.019 272 112.981zM534.016 617.984v-224l169.984-100.011-32-52.011-201.984 120.021v256h64zM336 816l-196.011-164.011-54.016 64 196.011 164.011zM937.984 715.989l-54.016-66.005-196.011 166.016 54.016 64z" />
<glyph unicode="&#xe90d;" glyph-name="access_time" d="M534.016 662.016v-224l192-114.005-32-54.016-224 136.021v256h64zM512 105.984q139.989 0 240.981 100.992t100.992 240.981-100.992 240.981-240.981 100.992-240.981-100.992-100.992-240.981 100.992-240.981 240.981-100.992zM512 873.984q176 0 301.013-125.013t125.013-301.013-125.013-301.013-301.013-125.013-301.013 125.013-125.013 301.013 125.013 301.013 301.013 125.013z" />
<glyph unicode="&#xe90e;" glyph-name="accessibility" d="M896 576h-256v-553.984h-86.016v256h-84.011v-256h-86.016v553.984h-256v86.016h768v-86.016zM512 873.984q34.005 0 59.989-25.003t25.984-59.008-25.984-59.989-59.989-25.984-59.989 25.984-25.984 59.989 25.984 59.008 59.989 25.003z" />
<glyph unicode="&#xe90f;" glyph-name="accessibility3" d="M416 864c0 53.024 42.976 96 96 96s96-42.976 96-96c0-53.024-42.976-96-96-96s-96 42.976-96 96zM640 640l329.6 142.176-23.776 59.424-401.824-137.6h-64l-401.824 137.6-23.776-59.424 329.6-142.176v-256l-131.264-424.576 59.84-22.688 185.728 415.264h27.424l185.728-415.264 59.84 22.688-131.264 424.576z" />
<glyph unicode="&#xe910;" glyph-name="accessible" d="M548.011 192h88.021q-13.995-70.016-75.989-120.021t-134.016-50.005q-88.021 0-150.016 61.995t-61.995 150.016q0 72.021 50.005 134.016t120.021 75.989v-88.021q-38.016-13.995-61.995-47.019t-24.021-75.008q0-52.011 38.016-89.984t89.984-38.016q41.984 0 75.008 24.021t47.019 61.995zM425.984 571.989q0 48 41.984 75.989t86.016 2.005h2.005v-2.005q13.995-6.016 25.984-18.005l56.021-61.995q72.021-77.995 171.989-77.995v-84.011q-112 0-212.011 82.005v-146.005h128q34.005 0 59.008-25.984t25.003-59.989v-233.984h-84.011v212.011h-214.016q-34.005 0-59.989 25.984t-25.984 59.989v251.989zM425.984 790.016q0 36.011 25.003 59.989t61.013 24.021 61.013-24.021 25.003-59.989-25.003-61.013-61.013-25.003-61.013 25.003-25.003 61.013z" />
<glyph unicode="&#xe911;" glyph-name="accessible_forward" d="M726.016 384q34.005 0 59.008-25.984t25.003-59.989v-233.984h-84.011v214.016h-214.016q-45.995 0-72.021 41.003t-6.016 82.987l77.995 173.995h-93.995l-27.989-66.005-82.005 24.021 27.989 75.989q22.016 52.011 80 52.011h221.995q48 0 73.984-40.021t6.016-82.005l-72.021-155.989h80zM598.016 233.984q0-88.021-63.019-150.016t-150.997-61.995-150.997 61.995-63.019 150.016 63.019 150.997 150.997 63.019v-86.016q-52.011 0-89.984-38.016t-38.016-89.984 38.016-89.984 89.984-38.016 89.984 38.016 38.016 89.984h86.016zM640 765.995q0 36.011 25.003 61.013t61.013 25.003 59.989-25.003 24.021-61.013-24.021-61.013-59.989-25.003-61.013 25.003-25.003 61.013z" />
<glyph unicode="&#xe912;" glyph-name="account_balance" d="M489.984 918.016l406.016-214.016v-86.016h-809.984v86.016zM681.984 534.016h128v-299.989h-128v299.989zM86.016 22.016v128h809.984v-128h-809.984zM425.984 534.016h128v-299.989h-128v299.989zM169.984 534.016h128v-299.989h-128v299.989z" />
<glyph unicode="&#xe913;" glyph-name="account_balance_wallet" d="M681.984 384q25.984 0 45.013 18.005t18.987 45.995-18.987 45.995-45.013 18.005-45.013-18.005-18.987-45.995 18.987-45.995 45.013-18.005zM512 278.016v340.011h425.984v-340.011h-425.984zM896 192v-41.984q0-34.005-25.984-59.989t-59.989-25.984h-596.011q-36.011 0-61.013 25.003t-25.003 61.013v596.011q0 36.011 25.003 61.013t61.013 25.003h596.011q34.005 0 59.989-25.984t25.984-59.989v-41.984h-384q-36.011 0-61.013-25.003t-25.003-61.013v-340.011q0-36.011 25.003-61.013t61.013-25.003h384z" />
<glyph unicode="&#xe914;" glyph-name="account_box" d="M256 233.984v-41.984h512v41.984q0 57.984-88.021 95.019t-168.021 36.992-168.021-36.992-88.021-95.019zM640 576q0 52.011-38.016 89.984t-89.984 38.016-89.984-38.016-38.016-89.984 38.016-89.984 89.984-38.016 89.984 38.016 38.016 89.984zM128 745.984q0 36.011 25.003 61.013t61.013 25.003h596.011q34.005 0 59.989-25.984t25.984-59.989v-596.011q0-34.005-25.984-59.989t-59.989-25.984h-596.011q-36.011 0-61.013 25.003t-25.003 61.013v596.011z" />
<glyph unicode="&#xe915;" glyph-name="account_circle" d="M512 139.989q68.011 0 143.019 40.021t112.981 98.005q-2.005 56.021-89.984 93.995t-166.016 38.016-166.016-36.992-89.984-95.019q38.016-57.984 112.981-98.005t143.019-40.021zM512 745.984q-52.011 0-89.984-38.016t-38.016-89.984 38.016-89.984 89.984-38.016 89.984 38.016 38.016 89.984-38.016 89.984-89.984 38.016zM512 873.984q176 0 301.013-125.013t125.013-301.013-125.013-301.013-301.013-125.013-301.013 125.013-125.013 301.013 125.013 301.013 301.013 125.013z" />
<glyph unicode="&#xe916;" glyph-name="account_tree" d="M937.984 489.984h-297.984v128h-86.016v-340.011h86.016v128h297.984v-342.016h-297.984v128h-169.984v425.984h-86.016v-128h-297.984v342.016h297.984v-128h256v128h297.984v-342.016z" />
<glyph unicode="&#xe917;" glyph-name="accusoft" d="M771.328 262.624c-8.928 11.136-371.584 474.88-384.224 490.496-11.904 15.616-8.928 20.064-6.688 22.304 4.48 5.216 11.136 4.48 37.152 4.48 15.616 0 170.208 0.736 186.528 0.736 33.44 0 38.656-2.976 42.368-3.712 3.712-1.504 12.64-8.928 19.328-16.352 3.712-4.48 328.48-393.12 331.424-396.832 3.712-4.48 8.928-11.904 13.408-18.56 3.712-6.688 4.48-15.616-1.504-19.328-3.712-2.208-183.552-76.544-188.768-78.048-5.216-2.208-14.848-5.92-22.304-4.48-3.712-0.032-14.848 5.152-26.752 19.296zM954.88 271.52l13.408-2.208c0 0 43.104-8.192 47.584-9.632 4.448-0.768 8.16-4.48 8.16-5.984 0-3.712-2.208-5.216-5.92-7.424-2.976-2.208-197.664-121.856-201.376-124.128-3.712-2.208-8.192-4.48-18.56-5.92-19.328-3.712-55.712 6.688-67.616 8.928-11.136 2.208-488.992 108.512-492.704 109.984-4.48 1.504-7.424 1.504-7.424 5.92-0.736 6.688 9.632 8.928 17.824 11.904s232.608 83.968 240.768 87.68c8.192 3.712 17.824 4.48 23.040 4.48s36.384-4.48 50.528-6.688 54.24-8.192 54.24-8.192l91.392-118.144c15.616-18.56 26.016-26.016 39.392-26.752 6.688-0.736 14.112 1.504 19.328 3.712 3.744 1.44 188.032 82.464 188.032 82.464zM433.184 561.376c0 0 78.752-101.088 79.52-101.792 0.736-1.504 1.504-2.976 2.976-3.712v-1.504c-2.976-2.208-143.456-132.256-144.16-133.024l-147.872-54.24c0 0-4.48-1.504-6.688-2.976s-5.216-4.48-4.48-11.136c0-2.208 0.736-36.384 1.504-44.576-0.736-0.736 0 0-0.736-0.736 0 0-182.048-57.984-183.552-57.984-8.928-2.976-26.016-8.928-28.256-7.424-3.712 2.976 0.736 7.424 2.976 10.4 2.208 2.976 375.296 370.080 389.408 384.928 20 21.536 39.328 23.776 39.328 23.776z" />
<glyph unicode="&#xe918;" glyph-name="acm" d="M317.216 437.344c-3.424-1.056-6.4-3.072-8.608-5.76-2.048-3.072-3.104-6.752-2.976-10.464 0-6.4 1.632-10.752 5.12-13.152 3.296-2.4 8.288-3.488 15.008-3.488 3.712 0 7.424 0.864 11.264 2.56 3.84 1.632 7.424 4.064 10.464 7.040v28.16c-7.168-0.64-12.928-1.28-17.28-1.92-4.48-0.416-8.832-1.44-12.96-2.976zM512 960l-512-512 512-512 512 512zM512 134.112c-173.312 0.096-313.824 140.544-313.888 313.888 0.096 173.312 140.576 313.856 313.888 313.952 173.344-0.096 313.824-140.576 313.888-313.952-0.096-173.344-140.544-313.824-313.888-313.888zM512 730.592v-0.096c-155.904 0-282.464-126.56-282.464-282.464s126.56-282.464 282.464-282.464 282.464 126.56 282.464 282.464c0 156-126.464 282.464-282.464 282.528zM389.888 378.752h-42.464v14.336l-7.776-6.56c-6.048-4.608-12.96-8.032-20.352-9.952-3.488-0.864-8.608-1.504-15.008-1.504-11.168-0.288-21.984 4.128-29.792 12.16-7.968 8.096-11.808 18.176-11.808 30.56 0 10.144 1.952 18.208 5.984 24.48 4.256 6.4 10.24 11.52 17.28 14.848 8.736 3.84 18.048 6.496 27.552 7.68 10.656 1.408 22.016 2.56 34.272 3.328v0.736c0 7.52-2.816 12.672-8.352 15.488-5.536 2.976-13.728 4.352-24.736 4.352-4.992 0-10.848-0.864-17.504-2.688-6.752-1.888-13.152-4.256-19.552-7.008h-3.712v32.864c4.128 1.28 10.912 2.656 20.48 4.256 9.248 1.696 18.688 2.56 28.288 2.56 23.456 0 40.544-3.936 51.2-11.776 10.656-7.808 16-19.712 16-35.712zM527.264 385.888c-2.976-1.184-5.728-2.4-8.544-3.68-3.168-1.28-6.4-2.464-9.824-3.424-4-1.024-7.936-1.888-11.52-2.56-3.584-0.608-8.352-0.928-14.336-0.928-11.232 0-21.6 1.408-30.848 4.256-8.96 2.656-17.312 7.040-24.32 13.088-6.944 6.048-12.448 13.664-15.904 22.176-3.84 8.96-5.76 19.488-5.76 31.488-0.352 11.52 1.792 22.816 6.24 33.28 3.84 8.704 9.568 16.384 16.736 22.624 7.040 5.728 15.136 9.952 23.904 12.384 9.376 2.816 19.072 4.096 28.8 4.096 15.776 0 31.232-3.712 45.216-10.88v-36.448h-5.408c-2.048 1.824-4.096 3.616-6.272 5.28-2.56 2.048-5.216 3.84-8.032 5.376-7.136 4.064-15.232 6.144-23.456 5.984-10.848 0-19.2-3.68-25.184-11.232-5.888-7.552-8.96-17.664-8.96-30.464 0-13.664 3.2-23.904 9.6-30.496 6.4-6.688 14.816-10.016 25.248-10.016 4.704 0 9.472 0.544 14.080 1.792 6.528 1.824 12.576 5.12 17.696 9.6 2.048 1.696 3.744 3.488 5.248 4.704h5.536zM712.16 378.496v68.128c0 6.688 0 12.384-0.288 16.928-0.096 3.84-0.864 7.68-2.208 11.232-0.992 2.816-2.976 5.12-5.536 6.4-6.528 2.72-13.856 2.688-20.384-0.096-3.68-1.696-7.168-3.712-10.4-5.984v-96.544h-42.368v68.064c0 6.656-0.128 12.192-0.416 16.896-0.128 3.84-0.864 7.68-2.144 11.264-1.152 2.816-3.232 5.12-5.792 6.4-2.56 1.408-6.176 2.048-10.656 2.048-3.552 0-7.040-0.864-10.24-2.4-3.328-1.696-6.496-3.68-9.728-5.792v-96.512h-42.464v136.032h42.368v-15.2c6.144 5.344 12.64 9.952 19.616 13.792 6.304 3.424 13.408 5.12 20.64 5.12 7.776 0.16 15.36-1.92 21.92-5.984 6.528-4.256 11.52-10.4 14.496-17.664 8.096 7.552 15.776 13.408 23.040 17.504s14.496 6.176 21.984 6.176c5.792 0.096 11.52-0.992 16.896-3.2 4.896-1.888 9.376-4.96 12.8-8.96 3.84-4.512 6.816-9.824 8.544-15.52 1.92-6.048 2.816-13.984 2.816-23.584v-88.576z" />
<glyph unicode="&#xe919;" glyph-name="ad_units" d="M726.016 918.016h-427.989q-34.005 0-59.008-25.003t-25.003-61.013v-768q0-36.011 25.003-61.013t59.008-25.003h427.989q34.005 0 59.008 25.003t25.003 61.013v768q0 36.011-25.003 61.013t-59.008 25.003zM726.016 150.016h-427.989v596.011h427.989v-596.011zM342.016 704h340.011v-86.016h-340.011v86.016z" />
<glyph unicode="&#xe91a;" glyph-name="adb" d="M640 576q18.005 0 29.995 11.989t11.989 29.995-11.989 31.019-29.995 13.013-29.995-13.013-11.989-31.019 11.989-29.995 29.995-11.989zM384 576q18.005 0 29.995 11.989t11.989 29.995-11.989 31.019-29.995 13.013-29.995-13.013-11.989-31.019 11.989-29.995 29.995-11.989zM688 774.016q121.984-89.984 121.984-240v-43.989h-596.011v43.989q0 150.016 121.984 240l-89.984 89.984 36.011 34.005 98.005-98.005q64 32 132.011 32t132.011-32l98.005 98.005 36.011-34.005zM214.016 278.016v169.984h596.011v-169.984q0-123.989-86.997-212.011t-210.987-88.021-210.987 88.021-86.997 212.011z" />
<glyph unicode="&#xe91b;" glyph-name="add" d="M809.984 406.016h-256v-256h-84.011v256h-256v84.011h256v256h84.011v-256h256v-84.011z" />
<glyph unicode="&#xe91c;" glyph-name="add_a_photo" d="M418.005 361.984q0 57.984 40.021 98.005t96 40.021q57.984 0 98.005-40.021t40.021-98.005q0-56.021-40.021-96t-98.005-40.021-96.981 38.997-38.997 96.981zM553.984 150.016q88.021 0 150.997 61.995t63.019 150.016-63.019 150.997-150.997 63.019-150.016-63.019-61.995-150.997 61.995-150.016 150.016-61.995zM256 534.016v128h128v128h297.984l77.995-86.016h136.021q34.005 0 59.989-25.984t25.984-59.989v-512q0-34.005-25.984-59.008t-59.989-25.003h-681.984q-34.005 0-59.989 25.003t-25.984 59.008v427.989h128zM128 790.016v128h86.016v-128h128v-86.016h-128v-128h-86.016v128h-128v86.016h128z" />
<glyph unicode="&#xe91d;" glyph-name="add_alarm" d="M553.984 576v-128h128v-86.016h-128v-128h-84.011v128h-128v86.016h128v128h84.011zM512 105.984q123.989 0 210.987 88.021t86.997 212.011-86.997 210.987-210.987 86.997-210.987-86.997-86.997-210.987 86.997-212.011 210.987-88.021zM512 790.016q160 0 272-112.981t112-271.019-112-271.019-272-112.981-272 112.981-112 271.019 112 271.019 272 112.981zM937.984 715.989l-54.016-66.005-196.011 166.016 54.016 64zM336 816l-196.011-164.011-54.016 64 196.011 164.011z" />
<glyph unicode="&#xe91e;" glyph-name="add_alert" d="M681.984 404.011v86.016h-128v128h-84.011v-128h-128v-86.016h128v-128h84.011v128h128zM806.016 242.005l89.984-89.984v-45.995h-768v45.995l89.984 89.984v248.021q0 96 66.005 180.011t160 105.984v29.995q0 27.989 20.011 48t48 20.011 48-20.011 20.011-48v-29.995q98.005-22.016 162.005-102.997t64-182.997v-248.021zM427.989 64h168.021q0-34.005-25.003-59.989t-59.008-25.984-59.008 25.984-25.003 59.989z" />
<glyph unicode="&#xe91f;" glyph-name="add_box" d="M726.016 406.016v84.011h-171.989v171.989h-84.011v-171.989h-171.989v-84.011h171.989v-171.989h84.011v171.989h171.989zM809.984 832q34.005 0 59.989-25.984t25.984-59.989v-596.011q0-34.005-25.984-59.989t-59.989-25.984h-596.011q-36.011 0-61.013 25.003t-25.003 61.013v596.011q0 36.011 25.003 61.013t61.013 25.003h596.011z" />
<glyph unicode="&#xe920;" glyph-name="add_business" d="M640 233.984h86.016v128h41.984v86.016l-41.984 214.016h-640l-43.989-214.016v-86.016h43.989v-256h384v256h169.984v-128zM384 192h-214.016v169.984h214.016v-169.984zM86.016 790.016h640v-86.016h-640v86.016zM854.016 192v128h-86.016v-128h-128v-86.016h128v-128h86.016v128h128v86.016h-128z" />
<glyph unicode="&#xe921;" glyph-name="add_call" d="M896 704v-86.016h-128v-128h-86.016v128h-128v86.016h128v128h86.016v-128h128zM854.016 297.984q18.005 0 29.995-11.989t11.989-29.995v-150.016q0-18.005-11.989-29.995t-29.995-11.989q-299.989 0-512.981 212.992t-212.992 512.981q0 18.005 11.989 29.995t29.995 11.989h150.016q18.005 0 29.995-11.989t11.989-29.995q0-80 24.021-152.021 8.021-25.984-9.984-43.989l-93.995-93.995q93.995-184.021 281.984-281.984l93.995 93.995q18.005 18.005 43.989 9.984 72.021-24.021 152.021-24.021z" />
<glyph unicode="&#xe922;" glyph-name="add_chart" d="M768 150.016v212.011h86.016v-212.011q0-34.005-25.984-59.989t-59.989-25.984h-598.016q-34.005 0-59.008 25.984t-25.003 59.989v596.011q0 34.005 25.003 59.989t59.008 25.984h512v-86.016h-512v-596.011h598.016zM854.016 662.016h128v-86.016h-128v-128h-86.016v128h-128v86.016h128v128h86.016v-128zM425.984 662.016h86.016v-425.984h-86.016v425.984zM598.016 406.016h84.011v-169.984h-84.011v169.984zM256 534.016h86.016v-297.984h-86.016v297.984z" />
<glyph unicode="&#xe923;" glyph-name="add_circle" d="M726.016 406.016v84.011h-171.989v171.989h-84.011v-171.989h-171.989v-84.011h171.989v-171.989h84.011v171.989h171.989zM512 873.984q176 0 301.013-125.013t125.013-301.013-125.013-301.013-301.013-125.013-301.013 125.013-125.013 301.013 125.013 301.013 301.013 125.013z" />
<glyph unicode="&#xe924;" glyph-name="add_circle_outline" d="M512 105.984q139.989 0 240.981 100.992t100.992 240.981-100.992 240.981-240.981 100.992-240.981-100.992-100.992-240.981 100.992-240.981 240.981-100.992zM512 873.984q176 0 301.013-125.013t125.013-301.013-125.013-301.013-301.013-125.013-301.013 125.013-125.013 301.013 125.013 301.013 301.013 125.013zM553.984 662.016v-171.989h171.989v-84.011h-171.989v-171.989h-84.011v171.989h-171.989v84.011h171.989v171.989h84.011z" />
<glyph unicode="&#xe925;" glyph-name="add_comment" d="M726.016 489.984v86.016h-171.989v169.984h-84.011v-169.984h-171.989v-86.016h171.989v-169.984h84.011v169.984h171.989zM937.984 790.016v-768l-169.984 169.984h-598.016q-34.005 0-59.008 25.984t-25.003 59.989v512q0 34.005 25.003 59.008t59.008 25.003h683.989q34.005 0 59.008-25.003t25.003-59.008z" />
<glyph unicode="&#xe926;" glyph-name="add_ic_call" d="M896 704v-86.016h-128v-128h-86.016v128h-128v86.016h128v128h86.016v-128h128zM854.016 297.984q18.005 0 29.995-11.989t11.989-29.995v-150.016q0-18.005-11.989-29.995t-29.995-11.989q-299.989 0-512.981 212.992t-212.992 512.981q0 18.005 11.989 29.995t29.995 11.989h150.016q18.005 0 29.995-11.989t11.989-29.995v-2.005q0-82.005 24.021-150.016 4.011-8.021 4.011-13.995 0-20.011-13.995-29.995l-93.995-93.995q40.021-75.989 123.008-159.019t159.019-123.008l93.995 93.995q13.995 13.995 29.995 13.995 6.016 0 13.995-4.011 72.021-24.021 152.021-24.021z" />
<glyph unicode="&#xe927;" glyph-name="add_link" d="M809.984 448v-128h128v-86.016h-128v-128h-84.011v128h-128v86.016h128v128h84.011zM166.016 448q0-54.016 38.997-93.013t93.013-38.997h171.989v-82.005h-171.989q-88.021 0-150.016 63.019t-61.995 150.997 61.995 150.997 150.016 63.019h171.989v-82.005h-171.989q-54.016 0-93.013-38.997t-38.997-93.013zM857.984 448q0 54.016-38.997 93.013t-93.013 38.997h-171.989v82.005h171.989q88.021 0 150.016-63.019t61.995-150.997h-80zM342.016 489.984h340.011v-84.011h-340.011v84.011z" />
<glyph unicode="&#xe928;" glyph-name="add_location" d="M681.984 534.016v84.011h-128v128h-84.011v-128h-128v-84.011h128v-128h84.011v128h128zM512 873.984q123.989 0 210.987-86.997t86.997-210.987q0-61.995-31.019-141.995t-75.008-150.016-86.997-130.987-73.003-96.981l-32-34.005q-11.989 13.995-32 36.992t-72.021 91.989-91.008 134.016-70.997 146.987-32 144q0 123.989 86.997 210.987t210.987 86.997z" />
<glyph unicode="&#xe929;" glyph-name="add_location_alt" d="M854.016 918.016v-128h128v-86.016h-128v-128h-86.016v128h-128v86.016h128v128h86.016zM512 406.016q36.011 0 61.013 25.003t25.003 59.008q0 36.011-25.003 61.013t-61.013 25.003-61.013-25.003-25.003-61.013q0-34.005 25.003-59.008t61.013-25.003zM598.016 822.016v-160h128v-128h123.989q4.011-27.989 4.011-52.011 0-212.011-342.016-504.021-342.016 292.011-342.016 504.021 0 80 27.989 144t75.989 109.995 109.013 70.997 128.981 25.003q43.989 0 86.016-9.984z" />
<glyph unicode="&#xe92a;" glyph-name="add_moderator" d="M809.984 105.984v-125.995h-84.011v125.995h-128v86.016h128v128h84.011v-128h128v-86.016h-128zM564.011-4.011q-4.011-2.005-22.997-9.003t-29.013-9.003q-164.011 40.021-274.005 187.008t-109.995 324.992v256l384 171.989 384-171.989v-256q0-54.016-11.989-112-52.011 27.989-116.011 27.989-105.984 0-180.992-75.008t-75.008-180.992q0-86.016 52.011-153.984z" />
<glyph unicode="&#xe92b;" glyph-name="add_photo_alternate" d="M214.016 150.016h512l-171.989 212.011-128-169.984-84.011 128zM681.984 489.984h128v-340.011q0-34.005-25.003-59.989t-59.008-25.984h-512q-34.005 0-59.989 25.984t-25.984 59.989v512q0 34.005 25.984 59.008t59.989 25.003h340.011v-128h128v-128zM809.984 662.016v-128h-84.011v128h-128v84.011h128v128h84.011v-128h128v-84.011h-128z" />
<glyph unicode="&#xe92c;" glyph-name="add_road" d="M854.016 192v128h-86.016v-128h-128v-86.016h128v-128h86.016v128h128v86.016h-128zM768 790.016h86.016v-384h-86.016v384zM169.984 790.016h86.016v-683.989h-86.016v683.989zM470.016 790.016h84.011v-171.989h-84.011v171.989zM470.016 534.016h84.011v-171.989h-84.011v171.989zM470.016 278.016h84.011v-171.989h-84.011v171.989z" />
<glyph unicode="&#xe92d;" glyph-name="add_shopping_cart" d="M306.005 329.984q0-9.984 9.984-9.984h493.995v-86.016h-512q-34.005 0-59.008 25.984t-25.003 59.989q0 20.011 9.984 40.021l57.984 105.984-153.984 324.011h-86.016v84.011h139.989q40.021-84.011 80-169.984 9.984-18.005 45.995-95.019t56.021-118.997h299.989q150.016 272 164.011 299.989l73.984-41.984-164.011-297.984q-24.021-43.989-73.984-43.989h-317.995l-38.016-70.016zM726.016 192q34.005 0 59.008-25.984t25.003-59.989-25.003-59.008-59.008-25.003-59.989 25.003-25.984 59.008 25.984 59.989 59.989 25.984zM297.984 192q34.005 0 59.989-25.984t25.984-59.989-25.984-59.008-59.989-25.003-59.008 25.003-25.003 59.008 25.003 59.989 59.008 25.984zM470.016 576v128h-128v86.016h128v128h84.011v-128h128v-86.016h-128v-128h-84.011z" />
<glyph unicode="&#xe92e;" glyph-name="add_task" d="M937.984 738.005l-486.016-486.016-182.016 180.011 61.995 59.989 120.021-120.021 425.984 425.984zM512 105.984q-70.016 0-132.011 27.008t-109.013 73.984-73.984 109.013-27.008 132.011 27.008 132.011 73.984 109.013 109.013 73.984 132.011 27.008q50.005 0 96-13.995t86.016-40.021l61.995 61.995q-52.011 36.011-114.005 56.021t-130.005 20.011q-88.021 0-164.992-32.981t-136.021-91.989-91.989-136.021-32.981-164.992 32.981-164.992 91.989-136.021 136.021-91.989 164.992-32.981q56.021 0 107.008 13.013t96.981 38.997l-64 64q-32-16-66.987-24.021t-73.003-8.021zM809.984 320h-128v-86.016h128v-128h86.016v128h128v86.016h-128v128h-86.016v-128z" />
<glyph unicode="&#xe92f;" glyph-name="add_to_drive" d="M328.021 809.984l-278.016-489.984 144-256 280.021 489.984-146.005 256zM569.984 320h-153.984l-148.011-256h352q-29.995 34.005-48 77.995t-18.005 91.989q0 24.021 4.011 45.013t11.989 41.003zM854.016 278.016v128h-86.016v-128h-128v-86.016h128v-128h86.016v128h128v86.016h-128zM884.011 480l-226.005 393.984h-292.011l262.016-459.989q36.011 36.011 82.987 56.021t98.987 20.011q38.016 0 73.984-9.984z" />
<glyph unicode="&#xe930;" glyph-name="add_to_home_screen" d="M425.984 320v153.984l-237.995-240-59.989 59.989 237.995 240h-152.021v84.011h297.984v-297.984h-86.016zM768 916.011q34.005 0 59.989-25.003t25.984-59.008v-768q0-34.005-25.984-59.989t-59.989-25.984h-425.984q-34.005 0-59.989 25.984t-25.984 59.989v128h86.016v-41.984h425.984v596.011h-425.984v-41.984h-86.016v128q0 34.005 25.984 59.989t59.989 25.984z" />
<glyph unicode="&#xe931;" glyph-name="add_to_queue" d="M681.984 534.016v-86.016h-128v-128h-84.011v128h-128v86.016h128v128h84.011v-128h128zM896 233.984v512h-768v-512h768zM896 832q36.011 0 61.013-25.003t25.003-61.013l-2.005-512q0-34.005-25.003-59.008t-59.008-25.003h-214.016v-86.016h-340.011v86.016h-214.016q-36.011 0-61.013 24.021t-25.003 59.989v512q0 36.011 25.003 61.013t61.013 25.003h768z" />
<glyph unicode="&#xe932;" glyph-name="addchart" d="M937.984 745.984v-84.011h-128v-128h-84.011v128h-128v84.011h128v128h84.011v-128h128zM809.984 150.016h-596.011v596.011h256v86.016h-256q-36.011 0-61.013-25.003t-25.003-61.013v-596.011q0-36.011 25.003-61.013t61.013-25.003h596.011q36.011 0 61.013 25.003t25.003 61.013v256h-86.016v-256zM640 406.016v-171.989h86.016v171.989h-86.016zM470.016 233.984h84.011v342.016h-84.011v-342.016zM384 233.984v256h-86.016v-256h86.016z" />
<glyph unicode="&#xe933;" glyph-name="address-book" d="M722.871 252.562c0 101.157-24.576 213.723-126.281 213.723-31.415-18.286-74.277-49.701-121.161-49.701s-89.71 31.415-121.161 49.701c-101.705 0-126.281-112.567-126.281-213.723 0-56.576 37.157-97.134 82.871-97.134h329.143c45.714 0 82.871 40.558 82.871 97.134zM624.018 591.982c0 82.286-66.853 148.553-148.553 148.553s-148.553-66.304-148.553-148.553c0-81.701 66.853-148.005 148.553-148.005s148.553 66.304 148.553 148.005zM987.429 283.429v-109.714c0-10.277-8.009-18.286-18.286-18.286h-54.857v-128c0-50.286-41.143-91.429-91.429-91.429h-694.857c-50.286 0-91.429 41.143-91.429 91.429v841.143c0 50.286 41.143 91.429 91.429 91.429h694.857c50.286 0 91.429-41.143 91.429-91.429v-128h54.857c10.277 0 18.286-8.009 18.286-18.286v-109.714c0-10.277-8.009-18.286-18.286-18.286h-54.857v-73.143h54.857c10.277 0 18.286-8.009 18.286-18.286v-109.714c0-10.277-8.009-18.286-18.286-18.286h-54.857v-73.143h54.857c10.277 0 18.286-8.009 18.286-18.286z" />
<glyph unicode="&#xe934;" glyph-name="address-book3" d="M192 960v-1024h768v1024h-768zM576 703.68c70.496 0 127.68-57.152 127.68-127.68s-57.152-127.68-127.68-127.68-127.68 57.152-127.68 127.68 57.152 127.68 127.68 127.68v0zM768 192h-384v64c0 70.688 57.312 128 128 128v0h128c70.688 0 128-57.312 128-128v-64zM64 896h96v-192h-96v192zM64 640h96v-192h-96v192zM64 384h96v-192h-96v192zM64 128h96v-192h-96v192z" />
<glyph unicode="&#xe935;" glyph-name="address-book-o" d="M624.018 591.982c0-81.701-66.853-148.005-148.553-148.005s-148.553 66.304-148.553 148.005c0 82.286 66.853 148.553 148.553 148.553s148.553-66.304 148.553-148.553zM596.59 466.286c109.129 0 126.281-129.719 126.281-213.723 0-48.018-30.281-97.134-82.871-97.134h-329.143c-52.553 0-82.871 49.152-82.871 97.134 0 80.567 17.152 213.723 123.429 213.723h2.853c37.705-22.272 75.995-49.701 121.161-49.701s83.419 27.429 121.161 49.701zM987.429 612.571c0-9.728-8.558-18.286-18.286-18.286h-54.857v-73.143h54.857c9.728 0 18.286-8.558 18.286-18.286v-109.714c0-9.728-8.558-18.286-18.286-18.286h-54.857v-73.143h54.857c9.728 0 18.286-8.558 18.286-18.286v-109.714c0-9.728-8.558-18.286-18.286-18.286h-54.857v-128c0-50.286-41.143-91.429-91.429-91.429h-694.857c-50.286 0-91.429 41.143-91.429 91.429v841.143c0 50.286 41.143 91.429 91.429 91.429h694.857c50.286 0 91.429-41.143 91.429-91.429v-128h54.857c9.728 0 18.286-8.558 18.286-18.286v-109.714zM841.143 27.429v841.143c0 9.728-8.558 18.286-18.286 18.286h-694.857c-9.728 0-18.286-8.558-18.286-18.286v-841.143c0-9.728 8.558-18.286 18.286-18.286h694.857c9.728 0 18.286 8.558 18.286 18.286z" />
<glyph unicode="&#xe936;" glyph-name="address-card" d="M512 330.496c0 77.504-19.008 163.488-98.016 163.488-24.512-14.016-57.504-38.016-94.016-38.016s-69.504 24-94.016 38.016c-79.008 0-98.016-86.016-98.016-163.488 0-43.488 28.512-74.496 64-74.496h256c35.488 0 64 31.008 64 74.496zM433.504 590.496c0 62.496-51.008 113.504-113.504 113.504s-113.504-51.008-113.504-113.504c0-63.008 51.008-113.504 113.504-113.504s113.504 50.496 113.504 113.504zM896 336v32c0 8.992-7.008 16-16 16h-288c-8.992 0-16-7.008-16-16v-32c0-8.992 7.008-16 16-16h288c8.992 0 16 7.008 16 16zM896 465.984v28c0 10.016-8 17.984-17.984 17.984h-284c-10.016 0-17.984-8-17.984-17.984v-28c0-10.016 8-17.984 17.984-17.984h284c10.016 0 17.984 8 17.984 17.984zM896 592v32c0 8.992-7.008 16-16 16h-288c-8.992 0-16-7.008-16-16v-32c0-8.992 7.008-16 16-16h288c8.992 0 16 7.008 16 16zM1024 752v-608c0-44-36-80-80-80h-176v48c0 8.992-7.008 16-16 16h-32c-8.992 0-16-7.008-16-16v-48h-384v48c0 8.992-7.008 16-16 16h-32c-8.992 0-16-7.008-16-16v-48h-176c-44 0-80 36-80 80v608c0 44 36 80 80 80h864c44 0 80-36 80-80z" />
<glyph unicode="&#xe937;" glyph-name="address-card-o" d="M512 330.496c0-43.488-28.512-74.496-64-74.496h-256c-35.488 0-64 31.008-64 74.496 0 77.504 19.008 163.488 97.984 163.488 24.512-14.016 57.504-38.016 94.016-38.016s69.504 24 94.016 38.016c79.008 0 97.984-86.016 97.984-163.488zM433.504 590.496c0-63.008-51.008-113.504-113.504-113.504s-113.504 50.496-113.504 113.504c0 62.496 51.008 113.504 113.504 113.504s113.504-51.008 113.504-113.504zM896 368v-32c0-8.992-7.008-16-16-16h-288c-8.992 0-16 7.008-16 16v32c0 8.992 7.008 16 16 16h288c8.992 0 16-7.008 16-16zM896 493.984v-28c0-10.016-8-17.984-17.984-17.984h-284c-10.016 0-17.984 8-17.984 17.984v28c0 10.016 8 17.984 17.984 17.984h284c10.016 0 17.984-8 17.984-17.984zM896 624v-32c0-8.992-7.008-16-16-16h-288c-8.992 0-16 7.008-16 16v32c0 8.992 7.008 16 16 16h288c8.992 0 16-7.008 16-16zM960 144v608c0 8.512-7.488 16-16 16h-864c-8.512 0-16-7.488-16-16v-608c0-8.512 7.488-16 16-16h176v48c0 8.992 7.008 16 16 16h32c8.992 0 16-7.008 16-16v-48h384v48c0 8.992 7.008 16 16 16h32c8.992 0 16-7.008 16-16v-48h176c8.512 0 16 7.488 16 16zM1024 752v-608c0-44-36-80-80-80h-864c-44 0-80 36-80 80v608c0 44 36 80 80 80h864c44 0 80-36 80-80z" />
<glyph unicode="&#xe938;" glyph-name="addthis" d="M768 384.16h-192.032v-191.328h-128v191.328h-191.968v127.584h192v191.36h128.032v-191.36h191.968zM896 958.24h-768c-70.496-0.096-127.648-57.088-128-127.584v-765.44c0.352-70.4 57.504-127.392 128-127.488h768c70.432 0.096 127.616 57.088 128 127.488v765.44c-0.384 70.496-57.504 127.456-128 127.584z" />
<glyph unicode="&#xe939;" glyph-name="adguard" d="M512 960c-148.512 0-323.168-35.328-472.288-112.128l-23.264-11.904v-26.272c0-158.336 3.040-580.832 473.632-860.544l21.888-13.152 21.888 13.152c470.624 279.712 473.6 702.208 473.6 860.576v25.952l-22.944 12.032c-147.328 77.088-324 112.288-472.544 112.288zM512 874.144c127.072 0 280.928-32.544 408.576-93.728-0.352-165.888-17.824-492.512-408.576-739.424-390.752 246.912-408.288 573.536-408.576 739.424 129.536 61.408 281.504 93.728 408.576 93.728zM726.816 636.704c-11.104-0.352-20.64-7.392-26.016-12.768l-229.536-238.080-85.856 102.944c-40.736 47.2-96.512 10.72-109.408 2.144l199.552-231.68 272.416 368.992c-5.376 5.216-12.704 8.448-20.832 8.448-0.128 0-0.256 0-0.352 0h0.032z" />
<glyph unicode="&#xe93a;" glyph-name="adjust" d="M512 137.143v621.714c-171.447 0-310.857-139.447-310.857-310.857s139.447-310.857 310.857-310.857zM950.857 448c0-242.286-196.571-438.857-438.857-438.857s-438.857 196.571-438.857 438.857 196.571 438.857 438.857 438.857 438.857-196.571 438.857-438.857z" />
<glyph unicode="&#xe93b;" glyph-name="adjust2" d="M640 426.656c0-70.016-58.016-128-128-128s-128 58.016-128 128 58.016 128 128 128 128-58.016 128-128zM512 84.672c188 0 342.016 154.016 342.016 342.016s-154.016 342.016-342.016 342.016-342.016-154.016-342.016-342.016 154.016-342.016 342.016-342.016zM512 852.672c236 0 426.016-189.984 426.016-426.016s-190.016-426.016-426.016-426.016-426.016 190.016-426.016 426.016 190.016 426.016 426.016 426.016z" />
<glyph unicode="&#xe93c;" glyph-name="adjust3" horiz-adv-x="864" d="M438.848 128v621.728c-171.424 0-310.848-139.424-310.848-310.848s139.424-310.848 310.848-310.848zM877.728 438.848c0-242.272-196.576-438.848-438.848-438.848s-438.848 196.576-438.848 438.848 196.576 438.848 438.848 438.848 438.848-196.576 438.848-438.848z" />
<glyph unicode="&#xe93d;" glyph-name="admin_panel_settings" d="M726.016 489.984q9.984 0 20.992-0.981t20.992-2.987v205.995l-320 139.989-320-139.989v-210.005q0-72.021 24.021-139.989t66.987-125.013 102.016-96.981 127.019-56.021q18.005 4.011 34.987 9.984t32.981 13.995q-22.016 29.995-34.005 68.011t-11.989 77.995q0 72.021 34.005 130.005t91.989 91.989 130.005 34.005zM726.016 406.016q-48 0-86.997-22.997t-61.995-61.995-22.997-86.997q0-45.995 22.997-84.992t61.995-61.995 86.997-22.997q45.995 0 84.992 22.997t61.995 61.995 22.997 84.992q0 48-22.997 86.997t-61.995 61.995-84.992 22.997zM726.016 345.984q20.011 0 34.005-13.995t13.995-34.005q0-18.005-15.019-32.981t-32.981-15.019q-20.011 0-34.005 15.019t-13.995 32.981q0 20.011 13.995 34.005t34.005 13.995zM726.016 118.016q-29.995 0-54.997 13.013t-41.003 36.992q0 13.995 18.005 25.003t40.021 16 38.016 4.992q13.995 0 36.992-4.992t40.021-16 16.981-25.003q-16-24.021-40.021-36.992t-54.016-13.013z" />
<glyph unicode="&#xe93e;" glyph-name="adn" d="M512 604.562l114.871-174.848h-229.705zM720.567 301.714h53.723l-262.29 394.862-262.29-394.862h53.723l59.429 91.429h298.277zM950.857 448c0-242.286-196.571-438.857-438.857-438.857s-438.857 196.571-438.857 438.857 196.571 438.857 438.857 438.857 438.857-196.571 438.857-438.857z" />
<glyph unicode="&#xe93f;" glyph-name="adobe" d="M644.256 874.656h379.744v-853.344zM379.744 874.656h-379.744v-853.344zM512 558.944l238.944-537.6h-162.144l-68.256 170.656h-174.944z" />
<glyph unicode="&#xe940;" glyph-name="adobeacrobatreader" d="M1006.848 304.288c-30.304 32.416-92.32 51.072-180.224 51.072-46.944 0-101.344-4.704-160.416-15.776-33.376 32.864-66.656 71.264-98.432 116.064-22.624 31.584-42.368 64.864-60.576 97.696 34.688 108.384 51.456 196.704 51.456 260.256 0 71.328-25.728 145.76-99.84 145.76-22.752 0-45.472-13.856-57.6-34.144-33.408-60.064-18.336-191.712 39.136-321.696-21.472-64.864-44.16-126.848-72.544-196.48-24.672-58.72-53.088-119.2-82.048-174.752-166.56-67.584-274.336-146.528-284.448-208.384-4.448-23.328 3.168-44.8 19.488-61.856 5.664-4.704 27.136-23.264 63.136-23.264 110.496 0 226.976 182.624 286.176 292.704 45.44 15.36 90.88 29.312 136.224 43.296 49.824 13.792 99.84 24.864 145.28 32.64 116.704-106.848 219.552-123.744 271.264-123.744 63.648 0 86.368 26.336 93.984 47.872 11.936 27.744 2.976 58.464-10.752 74.24zM947.744 259.328c-4.448-23.2-27.232-38.656-59.136-38.656-8.96 0-16.64 1.568-25.728 3.072-58.016 13.856-112.352 43.36-166.528 89.856 53.344 9.12 98.56 10.656 127.136 10.656 31.584 0 58.88-1.376 77.216-6.144 20.896-4.512 54.176-18.56 46.72-58.88zM626.784 332.16c-39.264-8.096-81.664-17.664-125.6-29.568-34.816-9.504-71.072-20.224-107.52-32.864 19.744 38.496 36.448 75.68 51.552 111.072 18.272 43.52 33.28 88.32 48.416 129.952 14.944-26.016 31.584-52.48 48.224-75.936 27.296-37.12 55.904-72.544 84.48-103.264zM428.384 907.52c6.176 12.384 18.336 18.592 28.928 18.592 31.776 0 37.856-37.024 37.856-66.56 0-49.824-15.104-125.536-40.96-211.936-45.312 120.32-48.416 221.024-25.824 259.872zM261.888 186.592c-77.216-129.824-151.392-210.464-196.832-210.464-8.96 0-16.512 3.2-22.624 7.808-9.12 9.216-13.664 20.128-10.592 32.416 9.088 46.496 95.392 111.488 230.016 170.24z" />
<glyph unicode="&#xe941;" glyph-name="adobeaftereffects" d="M0 947.2v-998.4h1024v998.4zM42.656 904.544h938.656v-913.056h-938.656zM289.44 381.856l-33.792-127.392c-0.736-3.552-2.144-4.832-6.304-4.832h-62.624c-4.256 0-4.96 1.504-4.256 6.4l121.184 423.808c2.144 7.68 3.488 13.856 4.192 34.976 0 2.816 1.408 4.256 3.552 4.256h89.44c2.816 0 4.256-0.768 4.96-4.256l135.808-459.52c0.672-3.488 0-5.536-3.552-5.536h-70.4c-3.488 0-5.536 1.28-6.272 4.096l-35.2 128.096zM409.184 451.168c-11.936 47.2-40.96 150.624-51.456 200.544h-0.672c-9.12-49.92-32.256-134.304-49.92-200.544zM637.856 407.456c0.736-57.728 28.16-96.416 92.928-96.416 25.344 0 47.072 3.328 69.536 13.216 2.848 1.376 4.992 0.64 4.992-2.848v-53.504c0-4.256-1.408-6.4-4.256-8.544-22.496-11.264-50.528-16.224-85.76-16.224-112.64 0-154.88 83.072-154.88 176 0 100.704 52.128 183.040 143.648 183.040 92.928 0 125.312-78.208 125.312-141.536 0-20.48-1.504-37.376-3.616-45.088-0.736-3.488-2.144-4.704-5.632-5.408-8.448-1.408-33.792-2.816-71.136-2.816zM724.48 466.144c21.856 0 29.568 0 31.648 0.672 0 2.912 0.736 5.344 0.736 7.424 0 23.264-11.36 65.888-55.712 65.888-40.832 0-58.464-35.936-62.624-73.888z" />
<glyph unicode="&#xe942;" glyph-name="adobeaudition" d="M0 947.2v-998.4h1024v998.4zM42.656 904.544h938.656v-913.056h-938.656zM284.128 371.2l-32.928-122.144c-0.736-3.456-2.080-5.856-6.176-5.856h-61.152c-4.128 0-4.832 1.376-4.128 6.176l118.144 411.36c2.624 9.856 4.16 21.184 4.16 32.832 0 0.704 0 1.408-0.032 2.112v-0.096c0 2.784 1.376 4.128 3.424 4.128h87.264c2.72 0 4.128-0.672 4.832-4.128l132.576-446.88c0.672-3.456 0-5.504-3.456-5.504h-68.704c-3.040 0-5.568 2.208-6.144 5.088v0.032l-34.336 122.88zM400.224 439.456c-11.68 46.048-39.168 146.304-49.44 195.072h-0.672c-8.928-48.768-30.944-130.528-48.096-195.072zM827.744 310.4c0-4.768 0.672-19.2 2.048-42.592 0-2.72-0.256-4.096-2.976-4.768-37.824-16.608-81.792-26.848-128.032-28.16h-0.48c-62.496 0-122.272 24.032-122.272 120.192v219.68c0 3.456 1.376 5.504 4.832 5.504h67.168c3.456 0 4.832-2.048 4.832-5.504v-210.784c0-40.544 17.696-62.496 60.288-62.496 0.256 0 0.576 0 0.896 0 14.816 0 28.992 2.784 42.016 7.84l-0.8-0.256v265.728c0 3.456 1.376 5.504 4.832 5.504h62.88c4.128 0 4.832-2.048 4.832-5.504z" />
<glyph unicode="&#xe943;" glyph-name="adobecreativecloud" d="M1024 465.12v-34.272c-0.352-1.888-0.736-3.712-0.928-5.536-1.696-14.944-2.848-29.92-5.28-44.704-8.48-50.528-26.048-95.68-51.072-135.712l0.896 1.568c-37.536-61.6-90.4-110.56-153.376-142.368l-2.144-0.992c-34.848-17.952-75.392-30.656-118.272-35.808l-1.728-0.16c-9.248-1.12-18.56-2.080-27.808-3.104h-359.712c-1.824 0.352-3.616 0.864-5.472 1.024-38.272 2.4-73.856 11.552-106.336 26.272l1.888-0.768c-72.416 32.224-126.432 84.48-161.76 156.32-14.816 29.376-25.344 63.552-29.728 99.616l-0.16 1.504-3.040 25.696v33.28c0.352 1.824 0.864 3.68 0.992 5.536 1.952 33.824 8.992 65.472 20.384 94.912l-0.736-2.112c30.56 80.224 83.872 139.776 159.488 178.304 36.32 18.784 79.008 30.688 124.224 32.832l0.704 0.032c4.8 0.256 10.4 0.384 16.032 0.384 16.96 0 33.632-1.248 49.952-3.616l-1.856 0.224c0.224-0.032 0.448-0.032 0.704-0.032 2.048 0 3.936 0.768 5.344 2.048v0c29.632 30.912 64.288 56.736 102.72 76.224l2.176 0.992c35.008 18.016 75.744 30.784 118.784 36l1.728 0.16c9.984 1.152 19.936 2.144 29.856 3.168h30.72c1.952-0.288 4-0.672 5.984-0.896 15.232-1.824 30.496-2.976 45.568-5.536 49.472-8.704 93.6-26.4 132.544-51.456l-1.408 0.864c61.184-38.56 109.6-92.352 140.608-156.16l0.992-2.24c17.696-35.52 30.24-76.8 35.264-120.384l0.16-1.728c1.12-9.76 2.048-19.552 3.072-29.312zM451.424 686.976c0.64-0.864 0.8-1.248 1.056-1.376 21.024-10.528 41.184-22.944 60.16-36.992 1.184-0.864 4.192-0.512 5.632 0.416 52.128 33.568 108.672 45.184 169.376 34.208 59.52-10.72 107.936-40.96 144.928-89.248 41.888-54.624 57.888-116.48 46.336-185.184-7.776-46.080-25.952-87.456-56.736-122.080-56.32-63.136-126.848-89.248-209.824-78.208-51.072 6.816-95.136 29.216-131.68 66.72-46.848 48.128-94.048 95.904-141.024 143.904-6.272 6.4-13.216 11.52-22.24 12.672-1.408 0.192-3.040 0.32-4.704 0.32-14.24 0-26.496-8.448-32.064-20.576l-0.096-0.224c-6.048-12.8-5.28-27.296 7.904-40.448 52.352-52.32 104.288-105.056 156.576-157.44 8.96-8.96 18.56-17.28 28.768-24.832 38.24-28.192 81.312-43.808 128-50.080 36.608-4.96 72.96-3.84 109.024 4.352 68.768 15.744 125.792 51.424 170.656 106.528 35.36 42.944 59.488 96.416 67.072 155.040l0.16 1.536c1.792 12.576 2.816 27.104 2.816 41.856 0 20.8-2.048 41.152-5.92 60.8l0.32-1.984c-10.4 54.176-32.992 102.752-69.12 144.096-69.024 78.752-155.872 113.92-259.168 106.112-41.792-3.552-80.096-15.616-114.144-34.432l1.472 0.736c-20.352-10.848-37.888-22.88-53.952-36.608l0.416 0.352zM426.144 136.96c-1.792 1.664-3.168 2.976-4.544 4.288l0.288-0.288c-21.376 20.576-42.912 40.96-64.096 61.824-3.168 3.616-7.776 5.856-12.928 5.856-0.256 0-0.512 0-0.768 0h0.032c-21.408-0.512-42.88-0.608-64 4.256-104.992 24.096-165.984 140.192-127.264 242.336 30.496 80.608 115.040 129.632 198.368 114.528 37.344-6.784 70.144-22.88 97.024-51.072 32.864-34.464 66.656-67.936 99.84-102.016 7.52-7.776 16.224-11.296 26.656-9.824 13.472 1.952 24.288 8.544 29.152 22.016 4.768 13.216 2.464 25.824-7.392 36-34.816 35.84-68.832 72.608-105.056 106.976-70.272 66.592-153.088 86.432-244.736 58.112-123.232-38.112-195.36-167.52-167.2-295.2 25.696-116.352 125.728-197.984 242.816-198.112h98.080c1.632 0 3.232 0.16 5.728 0.288z" />
<glyph unicode="&#xe944;" glyph-name="adobedreamweaver" d="M0 947.2v-998.4h1024v998.4zM42.656 904.544h938.656v-913.056h-938.656zM133.344 712.096c0 3.584 0.736 4.992 4.96 5.664 16.224 0.736 62.72 2.144 110.816 2.144 142.944 0 214.016-92.256 214.016-227.424 0-187.936-123.296-244.896-218.24-244.896-35.936 0-88.064 0.672-107.104 1.376-2.784 0-4.192 2.144-4.192 5.632zM210.144 316.576c11.936-0.768 22.528-1.44 35.936-1.44 78.848 0 137.248 55.648 137.984 175.264 0.864 116.896-59.744 161.92-134.944 161.92-14.816 0-26.752-0.864-38.688-1.632zM751.488 249.6c-4.96 0-6.304 1.92-7.040 6.112-21.12 117.536-38.688 200.672-46.496 258.4h-0.672c-9.12-52.32-26.016-138.976-54.176-259.328-1.408-4.256-2.816-5.408-6.304-5.408h-68.992c-4.96 0-6.304 0.672-7.68 4.896l-75.392 336.256c-0.672 2.848 0.768 5.664 4.992 5.664h68.992c2.816 0 4.96-0.992 5.632-3.84 26.752-151.296 37.984-229.728 42.24-260.704h2.816c4.96 36.608 19.712 112.896 51.36 259.328 1.408 4.256 1.408 5.28 5.632 5.28h72.544c3.488 0 4.192-1.696 4.896-5.248 24.672-138.656 40.832-226.144 45.056-261.376h2.144c6.816 45.056 16.224 105.824 46.24 262.144 0.736 2.816 1.408 4.512 4.96 4.512h64.864c2.816 0 4.96-1.408 3.552-4.96l-83.744-336.8c-0.64-3.552-1.28-4.96-6.24-4.96z" />
<glyph unicode="&#xe945;" glyph-name="adobeillustrator" d="M0 947.2v-998.4h1024v998.4zM42.656 904.544h938.656v-913.056h-938.656zM355.2 381.856l-33.792-127.904c-0.736-3.552-2.144-4.352-6.304-4.352h-62.624c-4.256 0-4.896 1.408-4.256 6.304l121.184 424.32c2.144 7.68 3.488 14.432 4.192 35.552 0 2.816 1.408 4.256 3.552 4.256h89.44c2.816 0 4.256-0.768 4.96-4.256l135.904-460.544c0.736-3.552 0-5.632-3.552-5.632h-70.4c-3.552 0-5.632 0.864-6.304 3.68l-35.2 128.64zM474.144 451.2c-11.936 47.2-40.096 150.528-50.688 200.544h-0.736c-9.12-49.92-31.648-134.4-49.28-200.544zM666.144 688.352c0 27.424 18.976 43.648 43.648 43.648 26.016 0 43.648-17.568 43.648-43.648 0-28.16-18.336-43.648-44.384-43.648-25.6 0-43.104 15.488-42.912 43.648zM670.944 591.328c0 3.424 1.408 4.704 4.96 4.704h66.976c3.744 0 5.12-1.408 5.12-4.96v-336.864c0-3.552-0.672-4.96-4.896-4.96h-66.144c-4.256 0-5.664 2.144-5.664 5.536z" />
<glyph unicode="&#xe946;" glyph-name="adobeindesign" d="M0 947.2v-998.4h1024v998.4zM42.656 904.544h938.656v-913.056h-938.656zM374.4 255.232c0-4.256-0.736-5.632-5.632-5.632h-65.536c-4.256 0-5.632 2.144-5.632 5.632v458.080c0 4.256 2.144 5.632 5.632 5.632h66.272c3.488 0 4.896-1.408 4.896-4.96zM449.92 420.448c0 102.112 67.328 181.632 175.008 181.632 9.12 0 14.080 0 22.528-0.64v113.248c0 2.816 2.144 4.256 4.256 4.256h69.344c3.584 0 4.256-1.44 4.256-3.584v-399.136c0-11.936 0-26.656 2.144-42.848 0-2.816-0.864-3.552-3.712-4.96-36.608-17.632-75.36-25.376-111.968-25.376-94.432 0-162.016 58.464-161.888 177.408zM647.456 532.384c-6.304 2.816-14.816 4.256-25.344 4.256-54.816 0-93.312-42.24-93.312-112.64 0-80.288 39.168-112.64 88.448-112.64 10.528 0 21.856 1.376 30.304 4.896z" />
<glyph unicode="&#xe947;" glyph-name="adobelightroomcc" d="M842.656 947.2h-661.344c-100.256 0-181.344-81.056-181.344-181.344v-635.744c0-100.256 81.056-181.344 181.344-181.344h661.344c100.256 0 181.344 81.056 181.344 181.344v635.744c0 100.256-81.056 181.344-181.344 181.344zM980.896 146.784c0-0.224 0-0.48 0-0.736 0-85.344-69.12-154.496-154.432-154.592h-628.928c-85.344 0-154.88 69.536-154.88 155.296v602.464c0 85.76 69.536 155.296 154.88 155.296h628.48c85.536 0 154.88-69.344 154.88-154.88v0zM283.744 250.464c-5.12 0-6.4 2.144-6.4 6.4v458.656c0 3.424 1.28 5.536 5.12 5.536h67.424c3.424 0 4.256-1.28 4.256-5.12v-395.104h175.776c3.424 0 4.704-1.28 3.84-5.12l-10.656-60.576c-0.864-3.424-2.976-5.12-6.4-5.12h-232.96zM603.744 526.944c0 5.12 0 17.504-2.144 41.376 0 3.424 0.864 4.256 3.424 5.536 26.016 10.656 87.904 29.44 157.024 29.44 3.424 0 5.12-0.864 5.12-4.256v-61.44c0-3.424-1.28-4.256-5.12-4.256-26.88 1.28-66.56-2.144-81.504-8.544v-269.216c0-3.424-1.28-5.12-5.12-5.12h-66.976c-3.424 0-5.12 1.28-5.12 5.12v271.36z" />
<glyph unicode="&#xe948;" glyph-name="adobelightroomclassic" d="M0 947.2v-998.4h1024v998.4zM42.656 904.544h938.656v-913.056h-938.656zM283.648 250.656c-4.96 0-6.304 2.144-6.304 6.304v458.4c0 3.552 1.408 5.632 4.96 5.632h67.584c3.584 0 4.256-1.568 4.256-5.12v-395.104h176c3.552 0 4.512-1.408 3.84-4.96l-10.592-60.576c-0.672-3.488-2.816-4.896-6.304-4.896zM599.456 526.976c0 5.12 0 17.76-2.144 41.696 0 3.552 0.768 4.256 3.584 5.632 26.016 10.496 87.808 29.536 156.8 29.536 3.424 0 4.768-0.736 4.768-4.256v-61.952c0-3.584-1.408-4.256-4.96-4.256-26.784 1.408-66.72-2.144-81.504-8.448v-269.216c0-3.488-1.408-4.896-4.96-4.896h-66.976c-3.424 0-4.864 1.408-4.864 4.96z" />
<glyph unicode="&#xe949;" glyph-name="adobephotoshop" d="M0 947.2v-998.4h1024v998.4zM42.656 904.544h938.656v-913.056h-938.656zM247.456 713.376c0 2.848 5.984 4.96 9.568 4.96 27.488 1.408 67.744 2.144 109.984 2.144 118.272 0 164.256-64.864 164.256-147.872 0-108.384-78.592-154.88-175.008-154.88-16.224 0-21.76 0.736-33.056 0.736v-163.936c0-3.552-1.408-4.96-4.896-4.96h-65.888c-3.552 0-4.896 1.28-4.896 4.832zM323.2 486.752c9.824-0.672 17.568-0.672 34.56-0.672 49.92 0 96.864 17.568 96.864 85.152 0 54.176-33.536 81.664-90.528 81.664-16.896 0-33.056-0.672-40.832-1.408zM690.432 537.44c-33.792 0-45.056-16.896-45.056-30.976 0-15.488 7.68-26.016 52.768-49.28 66.912-32.416 87.968-63.36 87.968-109.088 0-68.256-52.064-104.96-122.464-104.96-37.376 0-69.12 7.808-87.456 18.336-2.784 1.408-3.424 3.488-3.424 7.040v62.592c0 4.256 2.048 5.664 4.864 3.584 26.624-17.632 57.696-25.344 85.856-25.344 33.792 0 47.872 14.080 47.872 33.12 0 15.488-9.824 28.896-52.768 51.424-60.576 29.024-85.92 58.464-85.92 107.808 0 54.912 42.912 100.704 117.536 100.704 36.704 0 62.464-5.632 76.544-11.936 3.488-2.144 4.256-5.632 4.256-8.448v-58.464c0-3.552-2.144-5.664-6.4-4.256-18.944 11.264-46.944 18.336-74.208 18.176z" />
<glyph unicode="&#xe94a;" glyph-name="adobepremiere" d="M0 947.2v-998.4h1024v998.4zM42.656 904.544h938.656v-913.056h-938.656zM268.672 713.472c0 2.816 0.736 4.96 4.256 4.96 27.424 1.408 67.552 2.144 109.792 2.144 118.272 0 169.696-64.8 169.696-147.872 0-108.384-78.464-154.88-174.88-154.88-16.224 0-21.856 0.736-33.12 0.736v-163.968c0-3.552-1.408-4.96-4.896-4.96h-65.888c-3.552 0-4.96 1.408-4.96 4.96zM344.416 486.784c9.856-0.672 17.632-0.672 34.528-0.672 49.952 0 96.736 17.568 96.736 85.152 0 54.176-33.376 81.664-90.4 81.664-16.896 0-33.056-0.672-40.832-1.408zM617.472 525.536c0 4.896 0 17.568-2.080 41.504 0 3.552 0.48 4.256 3.296 5.632 46.24 18.304 99.808 29.12 155.84 29.568h0.192c3.488 0 4.896-0.672 4.896-4.224v-61.952c0-3.488-1.12-4.224-4.64-4.224-4.544 0.288-9.856 0.48-15.232 0.48-23.296 0-45.792-3.264-67.136-9.344l1.728 0.416v-268.832c0-3.552-1.44-4.96-4.96-4.96h-66.976c-3.488 0-4.896 1.408-4.896 4.96z" />
<glyph unicode="&#xe94b;" glyph-name="adobetypekit" d="M0 960v-1024h1024v1024zM42.656 916.224h938.656v-936.448h-938.656zM305.696 619.392h-118.24c-3.488 0-4.896 1.408-4.224 5.632l8.448 59.104c0.672 3.552 2.080 4.96 5.632 4.96h295.52c4.224 0 5.632-1.408 6.368-5.632l5.632-58.4c0.672-4.224-1.408-5.632-4.96-5.632h-117.504v-394.016c0-3.552-1.408-5.632-5.632-5.632h-65.44c-4.192 0-5.6 1.408-5.6 5.632zM627.968 416.032l107.648 145.664c2.816 3.488 3.488 4.896 7.040 4.896h71.776c4.224 0 5.632-2.816 2.816-6.304-16.896-21.792-94.304-117.504-119.648-148.48-0.32-0.608-0.512-1.344-0.512-2.112s0.192-1.504 0.512-2.144v0.032l136.544-182.24c1.408-2.816 0.672-5.632-3.552-5.632h-83.040c-4.224 0-5.632 1.408-7.040 4.224-24.896 32.64-61.888 83.744-98.176 135.36l-14.368 21.568v-156.256c0-3.488-0.736-4.896-4.96-4.896h-66.144c-4.96 0-5.632 1.408-5.632 5.632v459.488c0 2.080 0.672 4.224 4.896 4.224h66.848c2.816 0 4.96-1.408 4.96-4.96z" />
<glyph unicode="&#xe94c;" glyph-name="adobexd" d="M842.656 947.2h-661.344c-100.256 0-181.344-81.056-181.344-181.344v-635.744c0-100.256 81.056-181.344 181.344-181.344h661.344c100.256 0 181.344 81.056 181.344 181.344v635.744c0 100.256-81.056 181.344-181.344 181.344zM980.896 146.784c0-0.224 0-0.48 0-0.736 0-85.344-69.12-154.496-154.432-154.592h-628.928c-85.344 0-154.88 69.536-154.88 154.88v603.296c0 85.344 69.536 154.88 154.88 154.88h628.48c85.536 0 154.88-69.344 154.88-154.88v0zM404.896 480l119.456-229.536c2.144-3.424 0.864-6.816-2.56-6.816h-74.24c-4.704 0-6.816 1.28-8.96 5.536-27.296 56.32-55.040 112.64-83.616 173.216h-0.864c-25.6-57.184-53.76-117.344-81.056-173.664-2.144-3.424-4.256-4.704-7.68-4.704h-70.4c-4.256 0-4.704 3.424-2.56 5.984l116.896 222.72-113.056 225.28c-2.56 3.424 0 5.984 2.56 5.984h73.376c4.256 0 5.984-0.864 7.68-4.704 26.88-56.32 54.176-114.336 79.776-171.104h0.864c24.736 56.32 52.064 114.784 78.496 170.656 2.144 3.424 3.424 5.536 7.68 5.536h68.704c3.424 0 4.704-2.56 2.56-5.984zM545.28 410.464c0 99.424 66.144 177.056 171.104 177.056 8.96 0 13.664 0 22.176-0.864v113.056c0 2.56 2.144 4.256 4.256 4.256h67.424c3.424 0 4.256-1.28 4.256-3.424v-391.68c0-11.52 0-26.016 2.144-41.824 0-2.56-0.864-3.424-3.424-4.704-35.84-17.056-73.376-24.736-109.216-24.736-92.576-0.416-158.72 56.736-158.72 172.8zM738.56 519.68c-5.984 2.56-14.496 4.256-24.736 4.256-53.76 0-91.296-41.376-91.296-110.080 0-78.496 38.4-110.080 86.624-110.080 10.24 0 21.344 1.28 29.44 4.704z" />
<glyph unicode="&#xe94d;" glyph-name="agriculture" d="M832 448q29.995 0 57.003-9.003t48.981-22.997v201.984q0 36.011-25.003 61.013t-59.008 25.003h-269.995l-43.989 45.995 59.989 59.989-29.995 29.995-152.021-150.016 32-32 59.989 59.989 43.989-43.989v-98.005q0-36.011-25.003-61.013t-59.008-25.003h-24.021q29.995-34.005 48-77.013t18.005-93.013q0-9.984-0.981-20.992t-2.987-20.992h134.016q6.016 48 32 86.016t66.987 61.013 91.008 22.997zM832 406.016q-41.984 0-75.008-20.992t-54.016-54.016-20.992-75.008 20.992-75.008 54.016-54.016 75.008-20.992 75.008 20.992 54.016 54.016 20.992 75.008-20.992 75.008-54.016 54.016-75.008 20.992zM832 192q-25.984 0-45.013 18.987t-18.987 45.013 18.987 45.013 45.013 18.987 45.013-18.987 18.987-45.013-18.987-45.013-45.013-18.987zM169.984 576h214.016q0 36.011-25.003 61.013t-61.013 25.003h-128q-16 0-29.013-13.013t-13.013-31.019q0-16 13.013-29.013t29.013-13.013zM420.011 370.005l-8.021 20.011 40.021 16q-29.995 68.011-100.011 104.021l-16-38.016-20.011 8.021 18.005 38.016q-38.016 16-77.995 16-16 0-32.981-2.987t-31.019-9.003l13.995-38.016-20.011-8.021-16 40.021q-68.011-29.995-104.021-100.011l38.016-16-8.021-20.011-38.016 18.005q-16-38.016-16-77.995 0-16 2.987-32.981t9.003-31.019l38.016 13.995 8.021-20.011-40.021-16q29.995-68.011 100.011-104.021l16 38.016 20.011-8.021-18.005-38.016q38.016-16 77.995-16 16 0 32.981 2.987t31.019 9.003l-13.995 38.016 20.011 8.021 16-40.021q68.011 29.995 104.021 100.011l-38.016 16 8.021 20.011 38.016-18.005q16 38.016 16 77.995 0 16-2.987 32.981t-9.003 31.019zM306.005 201.984q-34.005-13.995-66.987-9.003t-59.989 25.003-41.003 52.011q-13.995 34.005-9.003 66.987t25.003 59.989 52.011 41.003q34.005 13.995 66.987 9.003t59.989-25.003 41.003-52.011q13.995-34.005 9.003-66.987t-25.003-59.989-52.011-41.003z" />
<glyph unicode="&#xe94e;" glyph-name="aid-kit" d="M896 704h-192v128c0 35.2-28.8 64-64 64h-256c-35.2 0-64-28.8-64-64v-128h-192c-70.4 0-128-57.6-128-128v-512c0-70.4 57.6-128 128-128h768c70.4 0 128 57.6 128 128v512c0 70.4-57.6 128-128 128zM384 832h256v-128h-256v128zM768 256h-192v-192h-128v192h-192v128h192v192h128v-192h192v-128z" />
<glyph unicode="&#xe94f;" glyph-name="airbnb" d="M511.904 180.608c-57.696 72.352-91.616 135.776-102.912 190.080-11.232 43.776-6.784 78.816 12.416 105.12 20.352 30.304 50.656 45.024 90.464 45.024s70.048-14.72 90.4-45.312c19.040-26.016 23.808-61.088 12.192-105.12-12.416-55.392-46.304-118.784-102.56-189.792zM921.376 131.968c-7.904-53.12-44.128-97.184-93.856-118.688-96.032-41.824-191.136 24.864-272.544 115.328 134.624 168.544 159.488 299.744 101.728 384.608-33.92 48.64-82.464 72.32-144.768 72.32-125.568 0-194.592-106.24-167.456-229.536 15.776-66.72 57.632-142.592 124.384-227.424-41.824-46.24-81.44-79.136-116.48-99.488-27.136-14.688-53.12-23.776-77.984-25.952-114.208-17.024-203.776 93.792-163.104 208.096 5.632 14.72 16.864 41.824 36.064 83.68l1.056 2.272c62.432 135.52 138.24 289.536 225.376 460.384l2.272 5.632 24.736 47.584c19.2 35.072 27.104 50.784 57.632 70.112 14.72 8.928 32.8 13.408 53.12 13.408 40.704 0 72.416-23.776 85.984-42.912 6.752-10.208 14.72-23.776 24.832-40.672l23.808-46.432 3.424-6.784c87.040-170.752 162.944-324.48 225.12-460.32l1.12-1.056 22.752-52.064 13.568-32.608c10.368-26.112 12.544-52.096 9.344-79.392zM973.408 233.888c-7.936 24.864-21.504 54.24-38.4 89.312v1.28c-80.512 170.88-155.296 324.48-226.304 462.496l-4.736 6.912c-50.592 103.776-86.816 166.112-192.032 166.112-104.032 0-148.224-72.288-193.408-166.272l-3.456-6.816c-71.168-137.984-145.92-291.808-226.176-462.592v-2.272l-23.808-52c-8.96-21.504-13.536-32.768-14.72-36.128-57.6-158.368 61.088-297.472 204.8-297.472 1.152 0 5.632 0 11.264 1.152h15.872c74.656 9.088 151.584 56.544 229.632 141.472 77.984-84.832 155.008-132.384 229.536-141.472h15.872c5.632-1.152 10.144-1.152 11.264-1.152 143.712-0.128 262.4 139.104 204.8 297.472z" />
<glyph unicode="&#xe950;" glyph-name="airline_seat_flat" d="M304 443.989q-34.005-38.016-89.984-38.016-54.016 0-89.984 36.011-38.016 34.005-38.016 91.989 0 52.011 36.011 88.021 36.011 40.021 91.989 40.021 50.005 0 88.021-38.016 40.021-36.011 40.021-89.984 0-52.011-38.016-89.984zM86.016 361.984h852.011v-84.011h-256v-86.016h-340.011v86.016h-256v84.011zM937.984 489.984v-84.011h-553.984v256h384q70.016 0 120.021-50.987t50.005-121.003z" />
<glyph unicode="&#xe951;" glyph-name="airline_seat_flat_angled" d="M312.021 523.989q-20.011-11.989-56.021-11.989-34.005 0-68.011 20.992t-48 50.987q-11.989 20.011-11.989 56.021 0 34.005 20.992 68.011t50.987 48q20.011 11.989 56.021 11.989 34.005 0 68.011-20.992t48-50.987q11.989-27.989 11.989-56.021 0-34.005-20.992-68.011t-50.987-48zM64 441.984l29.995 80 809.984-292.011-27.989-80-194.005 68.011v-68.011h-340.011v192zM950.016 349.995l-29.995-80-528 189.995 89.984 242.005 363.989-132.011q45.995-16 80-63.019t34.005-96.981q0-34.005-9.984-59.989z" />
<glyph unicode="&#xe952;" glyph-name="airline_seat_individual_suite" d="M809.984 662.016q70.016 0 121.003-50.987t50.987-121.003v-256h-939.989v427.989h86.016v-299.989h342.016v299.989h340.011zM297.984 406.016q-52.011 0-89.984 38.016t-38.016 89.984 38.016 89.984 89.984 38.016 89.984-38.016 38.016-89.984-38.016-89.984-89.984-38.016z" />
<glyph unicode="&#xe953;" glyph-name="airline_seat_legroom_extra" d="M973.995 224q13.995-24.021 4.011-50.005t-34.005-38.016l-157.995-72.021-146.005 297.984h-297.984q-52.011 0-89.984 38.016t-38.016 89.984v342.016h256v-256h150.016q22.016 0 43.989-13.995t32-34.005l144-297.984 48 22.016q24.021 9.984 48.981 2.005t36.992-29.995zM169.984 448q0-52.011 38.016-89.984t89.984-38.016h256v-86.016h-256q-88.021 0-150.016 63.019t-61.995 150.997v384h84.011v-384z" />
<glyph unicode="&#xe954;" glyph-name="airline_seat_recline_extra" d="M692.011 320l246.016-192-64-64-162.005 128h-292.011q-43.989 0-80.981 29.995t-45.013 73.984l-57.984 251.989q0 2.005-0.981 8.021t-0.981 8.021q0 34.005 24.021 61.995t56.021 34.005h2.005q2.005 0 6.997 0.981t6.997 0.981q34.005 0 59.989-20.011l70.016-54.016q96-73.984 200.021-54.016v-91.989q-96-16-219.989 52.011l43.989-173.995h208zM681.984 150.016v-86.016h-299.989q-75.989 0-137.984 52.011t-73.984 128l-84.011 418.005h84.011l84.011-404.011q8.021-45.995 43.989-77.013t84.011-31.019h299.989zM228.011 720q-27.989 20.011-34.005 54.997t13.995 63.019 54.997 34.987 63.019-13.013q27.989-22.016 34.987-57.003t-13.013-63.019-56.021-34.005-64 13.995z" />
<glyph unicode="&#xe955;" glyph-name="airline_seat_recline_normal" d="M854.016 103.979l-61.995-61.995-150.016 150.016h-216.021q-52.011 0-89.984 38.016t-38.016 89.984v246.016q0 38.016 29.013 66.987t66.987 29.013h2.005q38.016 0 70.016-32l59.989-66.005q34.005-38.016 91.008-61.995t109.013-24.021v-93.995q-123.989 0-235.989 93.995v-157.995h148.011zM256 278.016q0-52.011 38.016-89.984t89.984-38.016h256v-86.016h-256q-88.021 0-150.997 63.019t-63.019 150.997v384h86.016v-384zM324.011 729.984q-25.984 25.984-25.984 59.989t25.984 59.989 59.989 25.984 59.989-25.984 25.984-59.989-25.984-59.989-59.989-25.984-59.989 25.984z" />
<glyph unicode="&#xe956;" glyph-name="airplane" d="M768 320.032l-182.816 182.816 438.816 329.152-128 128-548.512-219.456-172.704 172.704c-49.792 49.792-119.296 61.696-154.496 26.496s-23.264-104.736 26.496-154.496l172.672-172.672-219.456-548.576 128-128 329.184 438.88 182.816-182.816v-255.968h128l64 192 192 64v128h-255.968z" />
<glyph unicode="&#xe957;" glyph-name="airplanemode_inactive" d="M128 714.656l54.016 54.016 672-672-54.016-54.016-246.016 244v-158.016l86.016-64v-64l-150.016 42.016-148-42.016v64l84 64v234.016l-340-106.016v84l254.016 160zM554.016 554.656l342.016-214.016v-84l-136 42.016-334.016 334.016v156c0 36 28 64 64 64s64-28 64-64v-234.016z" />
<glyph unicode="&#xe958;" glyph-name="airplanemode_off" d="M128 736l54.016 54.016 672-672-54.016-54.016-246.016 244.011v-157.995l86.016-64v-64l-150.016 41.984-148.011-41.984v64l84.011 64v233.984l-340.011-105.984v84.011l253.995 160zM553.984 576l342.016-214.016v-84.011l-136.021 41.984-333.995 333.995v155.989q0 25.984 18.987 45.013t45.013 18.987 45.013-18.987 18.987-45.013v-233.984z" />
<glyph unicode="&#xe959;" glyph-name="airplanemode_on" d="M896 278.016l-342.016 105.984v-233.984l86.016-64v-64l-150.016 41.984-148.011-41.984v64l84.011 64v233.984l-340.011-105.984v84.011l340.011 214.016v233.984q0 25.984 18.987 45.013t45.013 18.987 45.013-18.987 18.987-45.013v-233.984l342.016-214.016v-84.011z" />
<glyph unicode="&#xe95a;" glyph-name="airplay" d="M896 832q34.005 0 59.989-25.984t25.984-59.989v-512q0-34.005-25.984-59.008t-59.989-25.003h-169.984v84.011h169.984v512h-768v-512h169.984v-84.011h-169.984q-34.005 0-59.989 25.003t-25.984 59.008v512q0 34.005 25.984 59.989t59.989 25.984h768zM256 22.016l256 256 256-256h-512z" />
<glyph unicode="&#xe95b;" glyph-name="airplayaudio" d="M508.096 952.16c-122.784-0.96-245.6-45.824-343.264-135.328-208.288-190.912-220.416-515.456-29.504-723.744 8.672-10.4 19.072-19.072 29.504-29.504 5.216-3.456 12.192-3.552 17.408 1.664l22.592 26.080c5.216 5.216 5.216 13.888 0 19.072-182.24 168.352-194.432 454.752-24.32 636.992s454.752 194.336 636.992 24.256c182.24-170.112 194.336-454.656 24.256-636.928-8.672-8.672-15.584-17.376-24.256-24.32-5.216-5.216-5.216-13.888 0-19.072l22.592-26.080c5.216-5.216 13.888-5.152 19.072-1.664 208.288 192.672 220.416 515.456 29.504 723.744-102.368 110.656-241.44 165.92-380.576 164.832zM524.576 802.080c-93.728 3.040-188.736-29.536-262.496-98.080-147.552-137.12-156.192-367.968-19.072-515.488 5.216-5.216 10.4-12.128 17.344-17.344 5.216-5.216 13.888-5.216 19.072 0l22.592 26.016c5.216 5.216 5.216 13.888 0 19.072-60.736 57.28-97.152 138.88-97.152 223.904 0 168.352 137.056 305.504 305.408 305.504s305.504-138.816 305.504-307.168c0-83.296-34.752-164.96-95.488-222.24-5.216-5.216-5.216-13.888 0-19.072l22.592-26.016c5.216-5.216 13.888-6.944 19.072-1.76 147.552 138.848 154.528 369.728 17.408 517.248-68.576 73.76-161.024 112.384-254.752 115.424zM513.248 660.576c-56.416 0.864-113.248-19.904-157.504-62.432-88.512-85.056-90.208-223.904-5.152-312.416l5.152-5.248c5.216-5.216 13.888-5.216 19.104 0l22.592 26.080c5.216 5.216 5.216 13.888 0 19.072-29.504 29.504-46.848 71.104-46.848 114.496 0 0.128 0 0.288 0 0.448 0 87.936 71.296 159.232 159.232 159.232 0.16 0 0.32 0 0.448 0h-0.032c0.128 0 0.288 0 0.448 0 87.936 0 159.232-71.296 159.232-159.232 0-0.16 0-0.32 0-0.448v0.032c0-43.392-17.344-83.264-48.576-114.496-5.216-5.216-5.216-13.888 0-19.072l22.592-26.080c5.216-5.216 13.888-5.216 19.072 0 86.784 85.056 90.304 223.904 5.248 312.416-42.528 44.256-98.592 66.784-155.008 67.68zM513.504 330.176c-5.856 0.224-11.968-1.92-17.184-6.24l-1.664-1.76-305.504-343.68c-6.944-8.672-6.944-20.832 1.76-29.504 3.488-3.488 8.608-5.248 12.096-5.248h612.736c10.4 0 20.832 8.672 20.832 20.832 0 5.216-1.696 10.432-5.152 13.92l-302.080 343.68c-4.352 5.216-9.984 7.776-15.84 8z" />
<glyph unicode="&#xe95c;" glyph-name="airplayvideo" d="M145.568 903.68c-50.272 0-67.584-5.216-86.656-15.616-18.528-9.952-33.376-24.736-43.072-42.72l-0.288-0.544c-10.368-19.104-15.584-36.384-15.584-88.352v-389.856c0-50.272 5.216-67.616 15.584-86.656 10.4-19.072 24.32-32.928 43.36-43.36 17.312-10.4 34.688-15.584 86.656-15.584h116.064l48.544 57.184h-181.92c-13.856-1.76-29.44 0.032-43.36 7.008-8.672 3.424-15.616 12.064-20.832 20.736-5.216 13.856-8.672 27.744-6.912 43.36v422.752c-1.696 13.856 0 29.44 6.912 43.296 3.456 8.672 12.16 15.584 20.832 20.768 13.856 5.216 27.744 8.704 43.36 7.008h762.336c13.856 1.696 29.44-0.096 43.36-7.008 8.672-3.488 15.52-12.128 20.736-20.768 5.216-13.824 8.672-27.744 6.912-43.296v-424.544c1.696-13.824 0-29.44-6.912-43.296-3.456-8.672-12.064-15.584-20.736-20.736-13.856-5.216-27.744-8.672-43.36-6.944h-181.92l48.512-57.216 119.584 1.696c51.968 0 69.248 5.216 88.32 15.616 18.56 9.984 33.376 24.8 43.072 42.784l0.288 0.544c10.368 17.312 15.584 34.688 15.584 86.624v389.92c0 51.968-5.216 69.248-15.584 88.32-9.984 18.528-24.8 33.344-42.784 43.040l-0.544 0.288c-19.072 10.4-36.352 15.616-88.32 15.616zM506.144 383.232c-6.4-0.288-12.032-3.296-15.744-7.936l-0.032-0.032-303.2-348.256c-3.264-3.52-5.248-8.256-5.248-13.44 0-0.16 0-0.32 0-0.48v0.032c0-0.224 0-0.48 0-0.736 0-11.072 8.992-20.064 20.064-20.064 0.288 0 0.544 0 0.832 0h609.792c5.216 0 10.464 1.696 13.92 5.152 8.672 6.944 8.704 20.864 1.76 29.536l-304.992 349.952c-4.448 3.904-10.272 6.272-16.704 6.272-0.16 0-0.288 0-0.448 0h0.032z" />
<glyph unicode="&#xe95d;" glyph-name="airport_shuttle" d="M640 489.984h214.016l-171.989 171.989h-41.984v-171.989zM745.984 214.016q25.984 0 45.013 18.987t18.987 45.013-18.987 45.013-45.013 18.987-45.013-18.987-18.987-45.013 18.987-45.013 45.013-18.987zM553.984 489.984v171.989h-169.984v-171.989h169.984zM256 214.016q27.989 0 45.995 18.987t18.005 45.013-18.005 45.013-45.995 18.987-45.995-18.987-18.005-45.013 18.005-45.013 45.995-18.987zM128 489.984h169.984v171.989h-169.984v-171.989zM726.016 745.984l256-256v-212.011h-107.989q0-52.011-38.016-89.984t-89.984-38.016-89.984 38.016-38.016 89.984h-233.984q0-52.011-38.016-89.984t-89.984-38.016-89.984 38.016-38.016 89.984h-86.016v384q0 36.011 25.003 59.989t61.013 24.021h598.016z" />
<glyph unicode="&#xe95e;" glyph-name="alarm" d="M512 832c-247.424 0-448-200.576-448-448s200.576-448 448-448 448 200.576 448 448-200.576 448-448 448zM512 24c-198.816 0-360 161.184-360 360s161.184 360 360 360c198.816 0 360-161.184 360-360s-161.184-360-360-360zM934.784 672.832c16.032 28.064 25.216 60.544 25.216 95.168 0 106.048-85.952 192-192 192-61.824 0-116.8-29.216-151.904-74.592 131.872-27.232 245.216-105.184 318.72-212.576v0zM407.936 885.408c-35.104 45.376-90.112 74.592-151.936 74.592-106.048 0-192-85.952-192-192 0-34.624 9.184-67.136 25.216-95.168 73.504 107.392 186.816 185.344 318.72 212.576zM512 384v256h-64v-320h256v64z" />
<glyph unicode="&#xe95f;" glyph-name="alarm_add" d="M554.016 554.656v-128h128v-86.016h-128v-128h-84v128h-128v86.016h128v128h84zM512 84.672c166.016 0 298.016 134.016 298.016 300s-132 298.016-298.016 298.016-298.016-132-298.016-298.016 132-300 298.016-300zM512 768.672c212 0 384-172 384-384s-172-384-384-384-384 172-384 384 172 384 384 384zM938.016 694.656l-54.016-66.016-196 166.016 54.016 64zM336 794.656l-196-164-54.016 64 196 164z" />
<glyph unicode="&#xe960;" glyph-name="alarm_off" d="M342.016 820.011l-36.011-29.995-61.995 59.989 38.016 29.995zM701.995 176l-420.011 420.011q-68.011-84.011-68.011-189.995 0-123.989 86.997-212.011t210.987-88.021q104.021 0 189.995 70.016zM123.989 861.995q152.021-152.021 432.981-432t354.987-354.005l-54.016-54.016-93.995 93.995q-109.995-93.995-251.989-93.995-160 0-272 112.981t-112 271.019q0 57.984 27.989 132.011t66.005 118.016l-34.005 34.005-48-40.021-59.989 61.995 48 38.016-57.984 57.984zM937.984 715.989l-54.016-66.005-196.011 166.016 54.016 64zM512 704q-54.016 0-102.016-18.005l-66.005 64q84.011 40.021 168.021 40.021 160 0 272-112.981t112-271.019q0-88.021-38.016-168.021l-66.005 64q18.005 48 18.005 104.021 0 123.989-86.997 210.987t-210.987 86.997z" />
<glyph unicode="&#xe961;" glyph-name="alarm_on" d="M450.005 340.011l210.005 212.011 45.995-45.995-256-256-136.021 136.021 43.989 43.989zM512 105.984q123.989 0 210.987 88.021t86.997 212.011-86.997 210.987-210.987 86.997-210.987-86.997-86.997-210.987 86.997-212.011 210.987-88.021zM512 790.016q160 0 272-112.981t112-271.019-112-271.019-272-112.981-272 112.981-112 271.019 112 271.019 272 112.981zM336 816l-196.011-164.011-54.016 64 196.011 164.011zM937.984 715.989l-54.016-66.005-196.011 166.016 54.016 64z" />
<glyph unicode="&#xe962;" glyph-name="alarm2" d="M512 84.672c166.016 0 298.016 134.016 298.016 300s-132 298.016-298.016 298.016-298.016-132-298.016-298.016 132-300 298.016-300zM512 768.672c212 0 384-172 384-384s-172-384-384-384-384 172-384 384 172 384 384 384zM534.016 596.672v-224l170.016-100-32-52-202.016 120v256h64zM336 794.656l-196-164-54.016 64 196 164zM938.016 694.656l-54.016-66.016-196 166.016 54.016 64z" />
<glyph unicode="&#xe963;" glyph-name="album" d="M512 489.984q18.005 0 29.995-11.989t11.989-29.995-11.989-29.995-29.995-11.989-29.995 11.989-11.989 29.995 11.989 29.995 29.995 11.989zM512 256q80 0 136.021 56.021t56.021 136.021-56.021 136.021-136.021 56.021-136.021-56.021-56.021-136.021 56.021-136.021 136.021-56.021zM512 873.984q176 0 301.013-125.013t125.013-301.013-125.013-301.013-301.013-125.013-301.013 125.013-125.013 301.013 125.013 301.013 301.013 125.013z" />
<glyph unicode="&#xe964;" glyph-name="algolia" d="M134.816 960c-0.064 0-0.096 0-0.16 0-74.304 0-134.56-60.192-134.656-134.464v-754.784c0.064-74.4 60.416-134.72 134.816-134.752h754.336c74.528 0 134.816 60.576 134.816 134.816v754.336c0 74.528-60.576 134.816-134.816 134.816zM470.624 810.912h103.648c0 0 0.032 0 0.032 0 24.512 0 44.384-19.872 44.384-44.384 0 0 0-0.032 0-0.032v0-35.072c0-0.064 0-0.128 0-0.192 0-3.296-2.688-5.984-5.984-5.984-0.512 0-1.024 0.064-1.504 0.192h0.032c-26.144 7.456-56.16 11.776-87.168 11.776v0c-0.128 0-0.288 0-0.416 0-31.968 0-62.848-4.64-92-13.248l2.272 0.576c-4.064-0.896-7.776 1.92-7.776 5.984v35.968c0 0 0 0.032 0 0.032 0 24.48 19.904 44.32 44.448 44.384v0zM285.024 716.192c0.16 0 0.32 0 0.512 0 12.32 0 23.456-4.992 31.488-13.056l17.664-17.76c2.464-2.784 2.176-7.136-0.928-8.96-14.88-10.752-28-21.984-40.128-34.144l-0.032-0.032c-11.968-12.064-23.072-25.024-33.152-38.784l-0.672-0.96c-2.464-2.784-6.528-3.424-9.344-0.672l-17.408 17.44c-8.064 8.032-13.056 19.136-13.056 31.392s4.992 23.36 13.056 31.392l21.152 21.088c7.904 7.904 18.784 12.864 30.816 13.056h0.032zM523.808 701.28c0.16 0 0.352 0 0.544 0 159.616 0 289.024-129.408 289.024-289.024 0-0.064 0-0.128 0-0.192v0c-0.032-159.84-129.6-289.408-289.44-289.408-0.032 0-0.096 0-0.128 0v0c-159.904 0-289.664 129.184-289.664 289.152 0.064 159.872 129.664 289.44 289.536 289.44 0.032 0 0.096 0 0.128 0v0zM523.808 615.584c0 0 0 0 0 0-112.608 0-203.904-91.2-204.064-203.744v0c0.192-112.576 91.488-203.744 204.064-203.744v0c0.096 0 0.192 0 0.288 0 112.544 0 203.776 91.2 203.808 203.744v0c-0.16 112.576-91.424 203.776-204.032 203.776-0.032 0-0.064 0-0.096 0v0zM530.016 579.84c59.936-2.272 111.616-35.488 139.552-84l0.448-0.8c1.536-3.104 0.64-6.816-2.432-8.352l-135.072-69.888c-3.968-2.208-8.736 0.992-8.736 5.344v151.776h0.096c0 3.424 3.072 5.92 6.176 5.984z" />
<glyph unicode="&#xe965;" glyph-name="align_horizontal_center" d="M470.016 873.984h84.011v-212.011h342.016v-128h-342.016v-171.989h214.016v-128h-214.016v-212.011h-84.011v212.011h-214.016v128h214.016v171.989h-342.016v128h342.016v212.011z" />
<glyph unicode="&#xe966;" glyph-name="align_horizontal_left" d="M169.984 22.016h-84.011v852.011h84.011v-852.011zM937.984 662.016h-681.984v-128h681.984v128zM681.984 361.984h-425.984v-128h425.984v128z" />
<glyph unicode="&#xe967;" glyph-name="align_horizontal_right" d="M854.016 873.984h84.011v-852.011h-84.011v852.011zM86.016 534.016h681.984v128h-681.984v-128zM342.016 233.984h425.984v128h-425.984v-128z" />
<glyph unicode="&#xe968;" glyph-name="align_vertical_bottom" d="M937.984 22.016h-852.011v84.011h852.011v-84.011zM425.984 873.984h-128v-681.984h128v681.984zM726.016 617.984h-128v-425.984h128v425.984z" />
<glyph unicode="&#xe969;" glyph-name="align_vertical_center" d="M937.984 489.984h-212.011v214.016h-128v-214.016h-171.989v342.016h-128v-342.016h-219.989v-84.011h219.989v-342.016h128v342.016h171.989v-214.016h128v214.016h212.011v84.011z" />
<glyph unicode="&#xe96a;" glyph-name="align_vertical_top" d="M937.984 873.984v-84.011h-852.011v84.011h852.011zM297.984 22.016h128v681.984h-128v-681.984zM598.016 278.016h128v425.984h-128v-425.984z" />
<glyph unicode="&#xe96b;" glyph-name="align-center" d="M1024 192v-73.143c0-20.005-16.567-36.571-36.571-36.571h-950.857c-20.005 0-36.571 16.567-36.571 36.571v73.143c0 20.005 16.567 36.571 36.571 36.571h950.857c20.005 0 36.571-16.567 36.571-36.571zM804.571 411.429v-73.143c0-20.005-16.567-36.571-36.571-36.571h-512c-20.005 0-36.571 16.567-36.571 36.571v73.143c0 20.005 16.567 36.571 36.571 36.571h512c20.005 0 36.571-16.567 36.571-36.571zM950.857 630.857v-73.143c0-20.005-16.567-36.571-36.571-36.571h-804.571c-20.005 0-36.571 16.567-36.571 36.571v73.143c0 20.005 16.567 36.571 36.571 36.571h804.571c20.005 0 36.571-16.567 36.571-36.571zM731.429 850.286v-73.143c0-20.005-16.567-36.571-36.571-36.571h-365.714c-20.005 0-36.571 16.567-36.571 36.571v73.143c0 20.005 16.567 36.571 36.571 36.571h365.714c20.005 0 36.571-16.567 36.571-36.571z" />
<glyph unicode="&#xe96c;" glyph-name="align-justify" d="M1024 192v-73.143c0-20.005-16.567-36.571-36.571-36.571h-950.857c-20.005 0-36.571 16.567-36.571 36.571v73.143c0 20.005 16.567 36.571 36.571 36.571h950.857c20.005 0 36.571-16.567 36.571-36.571zM1024 411.429v-73.143c0-20.005-16.567-36.571-36.571-36.571h-950.857c-20.005 0-36.571 16.567-36.571 36.571v73.143c0 20.005 16.567 36.571 36.571 36.571h950.857c20.005 0 36.571-16.567 36.571-36.571zM1024 630.857v-73.143c0-20.005-16.567-36.571-36.571-36.571h-950.857c-20.005 0-36.571 16.567-36.571 36.571v73.143c0 20.005 16.567 36.571 36.571 36.571h950.857c20.005 0 36.571-16.567 36.571-36.571zM1024 850.286v-73.143c0-20.005-16.567-36.571-36.571-36.571h-950.857c-20.005 0-36.571 16.567-36.571 36.571v73.143c0 20.005 16.567 36.571 36.571 36.571h950.857c20.005 0 36.571-16.567 36.571-36.571z" />
<glyph unicode="&#xe96d;" glyph-name="align-left" d="M1024 192v-73.143c0-20.005-16.567-36.571-36.571-36.571h-950.857c-20.005 0-36.571 16.567-36.571 36.571v73.143c0 20.005 16.567 36.571 36.571 36.571h950.857c20.005 0 36.571-16.567 36.571-36.571zM804.571 411.429v-73.143c0-20.005-16.567-36.571-36.571-36.571h-731.429c-20.005 0-36.571 16.567-36.571 36.571v73.143c0 20.005 16.567 36.571 36.571 36.571h731.429c20.005 0 36.571-16.567 36.571-36.571zM950.857 630.857v-73.143c0-20.005-16.567-36.571-36.571-36.571h-877.714c-20.005 0-36.571 16.567-36.571 36.571v73.143c0 20.005 16.567 36.571 36.571 36.571h877.714c20.005 0 36.571-16.567 36.571-36.571zM731.429 850.286v-73.143c0-20.005-16.567-36.571-36.571-36.571h-658.286c-20.005 0-36.571 16.567-36.571 36.571v73.143c0 20.005 16.567 36.571 36.571 36.571h658.286c20.005 0 36.571-16.567 36.571-36.571z" />
<glyph unicode="&#xe96e;" glyph-name="align-right" d="M1024 192v-73.143c0-20.005-16.567-36.571-36.571-36.571h-950.857c-20.005 0-36.571 16.567-36.571 36.571v73.143c0 20.005 16.567 36.571 36.571 36.571h950.857c20.005 0 36.571-16.567 36.571-36.571zM1024 411.429v-73.143c0-20.005-16.567-36.571-36.571-36.571h-731.429c-20.005 0-36.571 16.567-36.571 36.571v73.143c0 20.005 16.567 36.571 36.571 36.571h731.429c20.005 0 36.571-16.567 36.571-36.571zM1024 630.857v-73.143c0-20.005-16.567-36.571-36.571-36.571h-877.714c-20.005 0-36.571 16.567-36.571 36.571v73.143c0 20.005 16.567 36.571 36.571 36.571h877.714c20.005 0 36.571-16.567 36.571-36.571zM1024 850.286v-73.143c0-20.005-16.567-36.571-36.571-36.571h-658.286c-20.005 0-36.571 16.567-36.571 36.571v73.143c0 20.005 16.567 36.571 36.571 36.571h658.286c20.005 0 36.571-16.567 36.571-36.571z" />
<glyph unicode="&#xe96f;" glyph-name="all_inbox" d="M640 278.016h256v-128q0-34.005-25.984-59.989t-59.989-25.984h-596.011q-34.005 0-59.989 25.984t-25.984 59.989v128h256q0-52.011 38.016-89.984t89.984-38.016 89.984 38.016 38.016 89.984zM809.984 576v169.984h-596.011v-169.984h169.984q0-52.011 38.016-89.984t89.984-38.016 89.984 38.016 38.016 89.984h169.984zM809.984 832q34.005 0 59.989-25.984t25.984-59.989v-297.984q0-34.005-25.984-59.989t-59.989-25.984h-596.011q-34.005 0-59.989 25.984t-25.984 59.989v297.984q0 34.005 25.984 59.989t59.989 25.984h596.011z" />
<glyph unicode="&#xe970;" glyph-name="all_inclusive" d="M793.984 678.016q96 0 162.987-68.011t66.987-162.005-66.987-162.005-162.987-68.011h-2.005q-38.016 0-84.992 20.011t-77.013 48l-54.016 48 64 56.021 50.005-41.984q43.989-43.989 104.021-43.989t102.016 41.984 41.984 102.016-41.984 102.016-102.016 41.984-102.016-41.984q-141.995-123.989-180.011-160l-120.021-105.984q-66.005-66.005-162.005-66.005t-162.987 68.011-66.987 162.005 66.987 162.005 162.987 68.011h2.005q40.021 0 86.997-20.011t75.008-48l54.016-48-66.005-56.021-48 41.984q-43.989 43.989-104.021 43.989t-102.016-41.984-41.984-102.016 41.984-102.016 102.016-41.984 102.016 41.984q141.995 123.989 180.011 160l120.021 105.984q66.005 66.005 162.005 66.005z" />
<glyph unicode="&#xe971;" glyph-name="all_out" d="M685.995 276.011q68.011 68.011 68.011 164.992t-68.011 164.992-164.992 68.011-164.992-68.011-68.011-164.992 68.011-164.992 164.992-68.011 164.992 68.011zM731.989 651.989q88.021-88.021 88.021-212.011t-88.021-210.005-212.011-86.016-210.005 86.016-86.016 210.005 86.016 212.011 210.005 88.021 212.011-88.021zM180.011 612.011v169.984h169.984zM349.995 100.011h-169.984v169.984zM861.995 269.995v-169.984h-169.984zM692.011 781.995h169.984v-169.984z" />
<glyph unicode="&#xe972;" glyph-name="alliedmodders" d="M25.696 914.048c-14.24-0.32-25.696-11.936-25.696-26.24 0 0 0 0 0 0v0-879.584c0-14.496 11.744-26.24 26.24-26.24v0h354.528c14.496 0 26.24 11.744 26.24 26.24v0 74.4l27.616-82.784c3.584-10.496 13.376-17.92 24.896-17.92 0 0 0.032 0 0.032 0h288.864c11.616 0 21.472 7.552 24.896 18.048l0.064 0.192 1.504 4.576c1.792-12.896 12.736-22.752 26.016-22.752 0 0 0 0 0.032 0h196.896c14.496 0 26.24 11.744 26.24 26.24v603.808c0 0 0 0 0 0.032 0 11.936-7.968 22.016-18.88 25.184l-0.192 0.032-183.776 52.608c-2.176 0.64-4.64 1.024-7.232 1.024-11.136 0-20.64-6.944-24.448-16.704l-0.064-0.192-80.512-209.312v236.768c0 0.032 0 0.032 0 0.064 0 11.872-7.904 21.92-18.72 25.152l-0.192 0.064-144.416 41.824c-2.208 0.672-4.736 1.056-7.328 1.056-14.496 0-26.24-11.744-26.24-26.208v-262.4l-119.84 319.136c-2.976 7.808-9.312 13.728-17.216 16.032l-0.192 0.032-341.344 96.864c-2.144 0.64-4.608 0.992-7.136 0.992-0.192 0-0.416 0-0.608 0h0.032zM52.48 853.024l295.168-83.712 166.016-442.144c3.84-10.048 13.376-17.056 24.576-17.056 14.496 0 26.24 11.744 26.24 26.24 0 0 0 0 0 0.032v0 372.064l91.936-26.624v-358.496c0-0.064 0-0.128 0-0.192 0-14.496 11.744-26.24 26.24-26.24 11.136 0 20.672 6.944 24.48 16.768l0.064 0.192 122.624 318.944 141.664-40.448v-557.824h-144.384v52.48h52.48c0 0 0 0 0 0 14.496 0 26.24 11.744 26.24 26.24 0 0 0 0.032 0 0.032v0 301.92c0 0 0 0 0 0 0 14.496-11.744 26.24-26.24 26.24-11.584 0-21.44-7.52-24.896-17.952l-0.064-0.192-125.44-388.768h-250.752l-190.944 572.832c-3.552 10.56-13.376 18.016-24.928 18.016-14.496 0-26.24-11.744-26.24-26.24 0-0.032 0-0.064 0-0.096v0-472.576c0-0.032 0-0.096 0-0.128 0-14.496 11.744-26.24 26.24-26.24 0 0 0 0 0 0h92v-65.568h-302.080zM288.864 437.152l94.88-284.768c-0.864 0.128-1.888 0.224-2.944 0.256h-91.936zM853.344 248.224v-108.768h-35.072z" />
<glyph unicode="&#xe973;" glyph-name="alt_route" d="M418.005 484.011l-61.995-59.989q-22.016 22.016-41.984 52.011t-34.005 72.021l84.011 22.016q9.984-27.989 24.021-48.981t29.995-36.992zM470.016 704l-171.989 169.984-169.984-169.984h128q2.005-54.016 8.021-91.989l84.011 20.011q-2.005 16-4.011 34.005t-2.005 38.016h128zM896 704l-169.984 169.984-171.989-169.984h128q-2.005-77.995-18.005-123.989t-40.021-73.984-50.005-52.011q-16-13.995-32-29.995t-29.995-38.016q-9.984 16-22.997 29.013l-25.003 25.003-59.989-59.989q20.011-18.005 34.987-36.011t22.997-43.989 8.021-66.005v0 0 0-212.011h84.011v212.011q0 43.989 9.984 70.016t27.008 45.013 41.003 41.003q22.016 20.011 45.013 43.989t43.008 59.008 32.981 86.016 15.019 125.013h128z" />
<glyph unicode="&#xe974;" glyph-name="alternate_email" d="M512 320q52.011 0 89.984 38.016t38.016 89.984-38.016 89.984-89.984 38.016-89.984-38.016-38.016-89.984 38.016-89.984 89.984-38.016zM512 873.984q176 0 301.013-125.013t125.013-301.013v-61.995q0-64-43.008-107.989t-105.003-43.989q-77.995 0-125.995 64-64-64-152.021-64t-150.997 63.019-63.019 150.997 63.019 150.997 150.997 63.019 150.997-63.019 63.019-150.997v-61.995q0-25.984 18.987-45.995t45.013-20.011 45.013 20.011 18.987 45.995v61.995q0 139.989-100.992 240.981t-240.981 100.992-240.981-100.992-100.992-240.981 100.992-240.981 240.981-100.992h214.016v-84.011h-214.016q-176 0-301.013 125.013t-125.013 301.013 125.013 301.013 301.013 125.013z" />
<glyph unicode="&#xe975;" glyph-name="amazon" d="M886.272 116.553c17.152 8.558 30.281-4.571 12.581-27.429s-160-153.161-398.848-153.161-421.705 163.438-477.696 230.839c-15.433 17.701 2.304 25.71 12.581 18.871 167.424-101.705 429.129-269.129 851.419-69.157zM1004.581 182.272c8.558-11.447 0-61.696-14.848-98.304-14.848-35.986-36.571-61.147-48.567-70.839-12.581-10.277-21.723-6.29-14.848 8.558s43.995 106.277 29.147 125.696c-14.848 18.871-84.553 9.728-109.714 7.424-24.576-2.304-29.696-4.571-32 0.585-5.157 13.129 49.701 35.438 85.723 40.009 35.986 3.986 93.696 1.719 105.143-13.129zM779.447 435.419c0-62.866 73.728-120.576 73.728-120.576l-129.719-128c-50.871 48.018-89.161 87.991-89.161 87.991-5.705 5.705-10.277 12.581-14.299 18.871-103.424-161.719-419.438-151.442-419.438 98.853 0 233.143 276.005 264.558 387.438 268.581v72.558c0 15.433 5.705 85.723-81.152 85.723 0 0-86.857 0-124.014-113.152l-168.009 15.433c0 112.567 106.862 238.299 308.005 238.299 200.558 0 256.585-130.304 256.585-188.014v-336.567zM395.447 423.424c0-116.005 192.585-143.433 192.585 39.424v92.562c-77.129-2.304-192.585-23.991-192.585-131.986z" />
<glyph unicode="&#xe976;" glyph-name="amazonalexa" d="M512 960c-282.88 0-512-229.12-512-512 0-259.84 193.28-474.016 443.744-507.744v102.4c0 0.288 0 0.672 0 1.024 0 29.696-19.072 54.912-45.6 64.128l-0.48 0.16c-143.136 49.312-244.16 182.88-244.16 340 0 3.008 0.032 6.016 0.096 9.024v-0.448c4.032 194.112 162.368 349.888 357.056 349.888 1.824 0 3.648 0 5.472-0.032h-0.288c196.384-2.048 354.816-161.696 354.816-358.368 0-4.672-0.096-9.28-0.256-13.92l0.032 0.672-0.416-2.976c-0.384-6.656-0.832-12.256-1.408-17.824l0.128 1.6c0-2.976-0.416-5.984-0.864-8.544 0-3.424-0.416-6.816-0.864-9.824l-0.864-4.256c-43.936-289.28-420.256-451.424-422.4-452.704 22.176-2.976 45.216-4.256 68.256-4.256 282.88 0 512 229.12 512 512s-229.12 512-512 512z" />
<glyph unicode="&#xe977;" glyph-name="amazonaws" d="M288.544 531.808c0-12.64 1.376-22.816 3.744-30.304 2.72-7.52 6.144-15.712 10.912-24.576 1.696-2.688 2.4-5.408 2.4-7.808 0-3.424-2.048-6.816-6.496-10.24l-21.472-14.304c-2.464-1.792-5.536-2.912-8.832-3.072h-0.032c-3.424 0-6.816 1.696-10.208 4.768-4.416 4.736-8.448 9.984-12 15.552l-0.256 0.448c-3.136 5.184-6.656 11.776-9.888 18.528l-0.672 1.568c-26.528-31.328-59.936-46.976-100.128-46.976-28.576 0-51.424 8.16-68.096 24.48-16.672 16.384-25.184 38.144-25.184 65.408 0 28.928 10.208 52.48 30.976 70.144 20.768 17.696 48.352 26.592 83.424 26.592 11.616 0 23.52-1.024 36.096-2.72 12.64-1.696 25.6-4.448 39.168-7.52v24.864c0 25.888-5.408 43.936-16 54.496-10.88 10.592-29.28 15.648-55.456 15.648-11.936 0-24.224-1.312-36.832-4.384s-24.864-6.816-36.768-11.616c-3.232-1.504-7.168-3.008-11.264-4.256l-0.704-0.192c-1.6-0.544-3.456-0.896-5.376-0.992h-0.064c-4.768 0-7.168 3.424-7.168 10.528v16.672c0 5.472 0.672 9.568 2.4 11.936 2.56 3.040 5.76 5.472 9.408 7.072l0.16 0.064c11.904 6.144 26.208 11.264 42.88 15.36 15.36 4.096 33.024 6.464 51.232 6.464 0.672 0 1.376 0 2.048 0h-0.096c40.544 0 70.144-9.216 89.216-27.616 18.72-18.336 28.256-46.304 28.256-83.744zM150.304 480c11.232 0 22.784 2.048 35.072 6.144 12.256 4.096 23.168 11.552 32.352 21.76 5.472 6.496 9.568 13.664 11.616 21.856 2.016 8.16 3.424 18.048 3.424 29.6v14.304c-8.448 2.208-19.104 4.224-29.92 5.664l-1.44 0.16c-9.6 1.28-20.704 2.016-31.968 2.048h-0.032c-22.816 0-39.52-4.448-50.784-13.664-11.232-9.184-16.64-22.112-16.64-39.136 0-16 4.064-27.936 12.576-36.096 8.16-8.544 20.064-12.64 35.744-12.64zM423.808 443.232c-6.144 0-10.24 1.024-12.96 3.424-2.72 2.048-5.12 6.816-7.168 13.28l-80 263.296c-1.44 3.968-2.528 8.608-3.040 13.376l-0.032 0.256c0 5.472 2.72 8.544 8.16 8.544h33.408c6.432 0 10.88-1.056 13.216-3.424 2.784-2.048 4.832-6.816 6.816-13.312l57.248-225.44 53.12 225.44c1.696 6.816 3.744 11.264 6.432 13.312 3.488 2.176 7.712 3.456 12.256 3.456 0.48 0 0.992 0 1.472-0.032h27.168c6.496 0 10.912-1.056 13.664-3.424 2.688-2.048 5.12-6.816 6.432-13.312l53.792-228.192 58.912 228.192c2.048 6.816 4.448 11.264 6.816 13.312 3.36 2.176 7.488 3.456 11.904 3.456 0.48 0 0.96 0 1.44-0.032h31.648c5.408 0 8.544-2.784 8.544-8.544 0-1.696-0.384-3.424-0.736-5.472-0.608-3.264-1.44-6.112-2.496-8.864l0.128 0.32-82.048-263.264c-2.048-6.816-4.448-11.232-7.168-13.28-3.328-2.144-7.392-3.456-11.744-3.456-0.416 0-0.832 0-1.248 0.032h-29.248c-6.432 0-10.88 1.024-13.664 3.424-2.688 2.4-5.088 6.816-6.4 13.664l-52.832 219.648-52.48-219.296c-1.696-6.816-3.712-11.264-6.4-13.664-2.784-2.4-7.552-3.424-13.664-3.424zM861.408 434.048c-17.696 0-35.424 2.048-52.448 6.112-17.024 4.096-30.304 8.544-39.168 13.664-5.472 3.040-9.184 6.432-10.528 9.504-1.28 2.816-2.016 6.080-2.048 9.536v17.376c0 7.136 2.72 10.528 7.808 10.528 2.048 0 4.096-0.352 6.144-1.024s5.12-2.048 8.544-3.424c11.552-5.12 24.16-9.184 37.472-11.904 13.6-2.72 26.88-4.096 40.544-4.096 21.408 0 38.144 3.744 49.696 11.264 10.688 6.528 17.728 18.144 17.728 31.392 0 0.32 0 0.672 0 0.992v-0.064c0 0.288 0 0.608 0 0.96 0 8.896-3.488 16.96-9.184 22.912v0c-6.144 6.432-17.76 12.256-34.432 17.696l-49.376 15.36c-24.864 7.808-43.264 19.36-54.496 34.688-10.56 13.504-16.96 30.688-17.056 49.376v0.032c0 14.304 3.104 26.88 9.216 37.792 6.144 10.88 14.304 20.448 24.544 27.904 10.24 7.84 21.76 13.664 35.424 17.696 13.664 4.096 27.936 5.792 42.912 5.792 7.456 0 15.328-0.352 22.816-1.376 7.808-1.024 14.944-2.4 22.112-3.744 6.816-1.696 13.312-3.424 19.424-5.408 6.144-2.048 10.912-4.096 14.336-6.144 4.096-2.080 7.52-4.96 10.176-8.448l0.064-0.064c1.92-2.848 3.072-6.368 3.072-10.144 0-0.384 0-0.768-0.032-1.12v0.064-16c0-7.168-2.72-10.912-7.84-10.912-4.832 0.576-9.184 2.016-13.12 4.192l0.192-0.096c-18.528 8.384-40.16 13.28-62.976 13.28-0.832 0-1.696 0-2.528-0.032h0.128c-19.424 0-34.784-3.040-45.312-9.504-10.592-6.496-16-16.352-16-30.304 0-9.568 3.424-17.76 10.24-24.192 6.784-6.496 19.36-12.96 37.408-18.784l48.384-15.264c24.48-7.84 42.24-18.784 52.768-32.736s15.648-29.952 15.648-47.648c0-14.624-3.072-27.936-8.832-39.52-6.144-11.616-14.336-21.792-24.864-29.984-10.592-8.544-23.168-14.624-37.792-19.072-15.36-4.736-31.328-7.136-48.736-7.136zM925.792 268.512c-112.032-82.784-274.848-126.688-414.816-126.688-196.192 0-372.896 72.544-506.464 193.12-10.528 9.504-1.024 22.496 11.616 14.976 144.384-83.744 322.528-134.528 506.752-134.528 124.32 0 260.864 25.888 386.56 79.008 18.72 8.544 34.72-12.256 16.352-25.888zM972.448 321.664c-14.336 18.336-94.72 8.832-131.168 4.384-10.88-1.376-12.576 8.192-2.688 15.36 64 44.928 169.248 32 181.504 17.024 12.256-15.36-3.424-120.576-63.36-170.976-9.184-7.84-18.048-3.744-13.952 6.432 13.664 33.696 43.936 109.664 29.664 127.744z" />
<glyph unicode="&#xe978;" glyph-name="ambulance" d="M330.323 183.742c0 36.633-29.432 66.065-66.065 66.065s-66.065-29.432-66.065-66.065 29.432-66.065 66.065-66.065 66.065 29.432 66.065 66.065zM132.129 448h198.194v132.129h-81.557c-3.105-0.529-8.787-2.577-11.363-4.658l-100.649-100.649c-1.553-2.577-4.129-8.258-4.658-11.363v-15.492zM792.774 183.742c0 36.633-29.432 66.065-66.065 66.065s-66.065-29.432-66.065-66.065 29.432-66.065 66.065-66.065 66.065 29.432 66.065 66.065zM858.839 530.581v99.097c0 9.282-7.234 16.516-16.516 16.516h-115.613v115.613c0 9.282-7.234 16.516-16.516 16.516h-99.097c-9.282 0-16.516-7.234-16.516-16.516v-115.613h-115.613c-9.282 0-16.516-7.234-16.516-16.516v-99.097c0-9.282 7.234-16.516 16.516-16.516h115.613v-115.613c0-9.282 7.234-16.516 16.516-16.516h99.097c9.282 0 16.516 7.234 16.516 16.516v115.613h115.613c9.282 0 16.516 7.234 16.516 16.516zM990.968 811.355v-594.581c0-18.069-14.964-33.032-33.032-33.032h-99.097c0-72.77-58.83-132.129-132.129-132.129-72.77 0-132.129 59.359-132.129 132.129h-198.194c0-72.77-58.83-132.129-132.129-132.129s-132.129 59.359-132.129 132.129h-66.065c-18.069 0-33.032 14.964-33.032 33.032s14.964 33.032 33.032 33.032v214.71c0 18.069 10.339 43.371 23.222 56.254l102.202 102.202c12.916 12.916 38.185 23.222 56.254 23.222h82.581v165.161c0 18.069 14.964 33.032 33.032 33.032h594.581c18.069 0 33.032-14.964 33.032-33.032z" />
<glyph unicode="&#xe979;" glyph-name="amd" d="M781.824 570.144l66.528-66.56h109.056v-109.088l66.592-66.56v242.208zM85.344 553.824l-85.344-211.616h55.84l15.776 41.888h94.752l17.408-41.888h57.088l-94.464 211.616zM264.928 553.824v-211.424h52.832v131.936l57.088-66.656h8.032l57.088 66.4v-131.872h52.832v211.616h-46.048l-67.936-78.72-67.872 78.72zM532.992 553.824v-211.616h87.776c84.448 0 122.88 44.64 122.88 105.472 0 58.016-39.968 106.144-117.216 106.144zM585.76 514.976h33.792c49.92 0 69.536-30.336 69.536-66.976 0-31.072-15.872-67.072-68.96-67.072h-34.4zM117.088 503.328l33.76-82.432h-65.152zM848.256 490.24l-68.448-68.384v-96h95.84l68.448 68.576h-95.84z" />
</font>
</defs>
</svg>
